<?xml version="1.0" encoding="UTF-8" standalone="no"?>
<!-- Created with Inkscape (http://www.inkscape.org/) -->

<svg
   xmlns:dc="http://purl.org/dc/elements/1.1/"
   xmlns:cc="http://creativecommons.org/ns#"
   xmlns:rdf="http://www.w3.org/1999/02/22-rdf-syntax-ns#"
   xmlns:svg="http://www.w3.org/2000/svg"
   xmlns="http://www.w3.org/2000/svg"
   xmlns:sodipodi="http://sodipodi.sourceforge.net/DTD/sodipodi-0.dtd"
   xmlns:inkscape="http://www.inkscape.org/namespaces/inkscape"
   id="svg2"
   version="1.1"
   inkscape:version="0.48.4 r9939"
   width="293.75"
   height="148.75"
   xml:space="preserve"
   sodipodi:docname="Informa Software Logo CMYK.eps"><metadata
     id="metadata8"><rdf:RDF><cc:Work
         rdf:about=""><dc:format>image/svg+xml</dc:format><dc:type
           rdf:resource="http://purl.org/dc/dcmitype/StillImage" /><dc:title></dc:title></cc:Work></rdf:RDF></metadata><defs
     id="defs6" /><sodipodi:namedview
     pagecolor="#ffffff"
     bordercolor="#666666"
     borderopacity="1"
     objecttolerance="10"
     gridtolerance="10"
     guidetolerance="10"
     inkscape:pageopacity="0"
     inkscape:pageshadow="2"
     inkscape:window-width="1920"
     inkscape:window-height="1057"
     id="namedview4"
     showgrid="false"
     inkscape:zoom="1.7042778"
     inkscape:cx="155.52141"
     inkscape:cy="116.12548"
     inkscape:window-x="1672"
     inkscape:window-y="-8"
     inkscape:window-maximized="1"
     inkscape:current-layer="g10" /><g
     id="g10"
     inkscape:groupmode="layer"
     inkscape:label="ink_ext_XXXXXX"
     transform="matrix(1.25,0,0,-1.25,0,148.75)"><g
       id="g12"
       transform="scale(0.1,0.1)"><path
         d="m 1328.77,738.125 c 0.06,0.527 -2.14,-0.937 -2.97,-0.48 -0.09,0.363 -0.18,0.707 -0.27,1.046 -0.81,-0.097 -0.37,-0.976 -1.34,-0.976 0.55,-0.469 0.91,-1.231 1.5,-1.641 0.01,-0.176 -0.17,-0.254 -0.11,-0.469 -0.82,-0.156 -1.45,-0.019 -1.73,0.704 -0.24,-0.325 -0.91,-0.403 -0.64,-1.036 0.74,0.743 1.67,-0.293 2.2,-0.82 0.75,0.078 1.17,0.371 1.62,0.606 -0.19,0.156 -0.44,0.222 -0.71,0.285 0.92,1.14 0.13,2.39 2.45,2.781 z m 450.67,152.773 c 0.12,0.176 1.18,0.594 1.34,0.137 0.52,0.43 -1.58,0.957 -1.34,-0.137 z m 78.17,54.551 c 0.39,0.098 0.5,-0.176 0.25,-0.195 0.56,-0.703 0.35,0.898 1.31,0.547 -0.49,0.488 -1.71,-0.078 -1.76,-0.586 0.14,-0.32 0.22,0 0.2,0.234 z m -39.42,-2.695 c -0.11,0.5 -0.67,0.449 -0.93,0.137 -1.86,0.449 -0.42,-0.469 0.93,-0.137 z m -497.3,-184.309 c 1.61,-0.425 5.56,0.227 7.94,1.41 -1.23,2.188 -2.58,4.176 -3.59,6.708 -2.1,-1.219 -5.61,-2.375 -4.94,-4.7 0.99,-0.047 2.02,-0.039 2.62,-0.711 -0.36,-1.14 -2.9,-1.347 -4.13,-1.418 0,-0.347 0.28,-0.32 0.35,-0.586 -0.72,-0.164 -1.21,0.879 -1.79,0.012 0.56,-1.601 2.24,-1.406 4.04,-1.035 -0.13,0.168 -0.27,0.332 -0.5,0.32 z m 7.88,-20.32 c 0.06,0.527 -2.14,-0.937 -2.97,-0.48 -0.09,0.363 -0.18,0.707 -0.27,1.046 -0.81,-0.097 -0.37,-0.976 -1.34,-0.976 0.55,-0.469 0.91,-1.231 1.5,-1.641 0.01,-0.176 -0.17,-0.254 -0.11,-0.469 -0.82,-0.156 -1.45,-0.019 -1.73,0.704 -0.24,-0.325 -0.91,-0.403 -0.64,-1.036 0.74,0.743 1.67,-0.293 2.2,-0.82 0.75,0.078 1.17,0.371 1.62,0.606 -0.19,0.156 -0.44,0.222 -0.71,0.285 0.92,1.14 0.13,2.39 2.45,2.781 z m 450.67,152.773 c 0.12,0.176 1.18,0.594 1.34,0.137 0.52,0.43 -1.58,0.957 -1.34,-0.137 z m 78.17,54.551 c 0.39,0.098 0.5,-0.176 0.25,-0.195 0.56,-0.703 0.35,0.898 1.31,0.547 -0.49,0.488 -1.71,-0.078 -1.76,-0.586 0.14,-0.32 0.22,0 0.2,0.234 z m -39.42,-2.695 c -0.11,0.5 -0.67,0.449 -0.93,0.137 -1.86,0.449 -0.42,-0.469 0.93,-0.137 z M 1326.93,733.699 c 5.29,-0.047 9.92,-0.965 14.82,1.223 -5.82,-1.621 -10.23,0.137 -14.82,-1.223 z m 31.21,12.239 c -0.82,-0.918 0.21,-3.047 -1.46,-3.418 0.87,-1.004 1.03,0.859 2.04,0.886 -0.39,0.949 0.24,1.887 -0.58,2.532 z m -10.26,0.117 c 0.16,-0.586 0.96,-0.176 1.58,-0.078 -0.01,0.839 -1.07,0.039 -1.58,0.078 z m -36.86,-4.571 c -0.4,0.469 -1.29,-0.254 -1.69,-0.398 0.83,-1.477 2.23,-2.055 2.92,-3.742 0.68,0 0.52,0.508 1.22,0.508 -1.28,0.586 -1.97,2.07 -2.97,3.066 0.03,0.273 0.18,0.508 0.52,0.566 z m 36.69,11.172 c -0.69,-0.437 0.08,-1.582 0.61,-0.742 -0.16,0.313 -0.7,0.02 -0.61,0.742 z m 26.52,10.11 c -0.59,-0.325 -0.63,-0.344 -1.29,-0.286 0.12,-0.925 0.83,-0.976 1.56,-0.996 -0.81,0.618 -0.65,0.45 -0.27,1.282 z m -1.8,0.047 c -0.36,-0.02 -0.35,-0.286 -0.59,-0.34 0.06,-0.578 0.44,-0.637 0.99,-0.461 -0.06,0.39 -0.36,0.39 -0.4,0.801 z m -1.97,-0.208 c 0.77,0.364 1.24,0.911 2.2,1.145 -0.66,0.645 -2.11,-0.344 -2.2,-1.145 z m -0.43,1 c -0.63,0.438 -1.05,-0.785 -0.26,-0.937 0.62,-0.031 -0.36,0.965 0.26,0.937 z m 43.1,16.473 c -0.8,-0.019 -1.09,-0.371 -1.4,-0.742 0.39,-0.234 1,-0.148 1.58,-0.106 -0.07,0.282 -0.13,0.567 -0.18,0.848 z m 50.33,16.172 c -0.82,0.605 -1.28,-0.598 -2.11,-0.625 0.65,-0.457 1.69,0.359 2.11,0.625 z m 26.96,10.996 c -0.04,0.215 -0.32,0.117 -0.48,0.137 -1.06,-0.574 -2.72,-0.762 -3.25,-1.699 1.21,0.527 2.35,1.125 3.73,1.562 z m 571.86,59.934 c 0.27,-0.547 1,-0.61 1.81,-0.61 -0.41,0.422 -1.07,0.559 -1.81,0.61 z m -581.97,-60.93 c 1.78,-0.391 2.66,1.426 4.64,1.523 -1.3,0.723 -3.19,-1.113 -4.64,-1.523 z m 573.12,64.141 c 0.49,-0.481 1.27,-0.645 2.05,-0.801 -0.3,0.586 -1.57,1.055 -2.05,0.801 z m -9.39,0.156 c 1.11,-0.527 2.09,-1.133 3.61,-1.192 -0.62,0.977 -2.4,0.774 -3.61,1.192 z m 16.96,1.133 c 0.15,-0.684 1.64,-1.133 2.04,-0.813 0.7,-0.262 2.81,-1.59 3.14,-0.137 -2.24,0.61 -3.66,0.793 -5.18,0.95 z m -32.89,0.722 c 0.01,-0.214 0.27,-0.168 0.44,-0.214 -0.12,-0.168 -0.22,-0.352 -0.19,-0.645 0.73,-0.176 0.85,0.215 1.11,0.469 -0.05,0.547 -0.77,0.398 -1.36,0.39 z m 26.35,1.25 c 1.66,-1.172 4.31,-1.347 6.34,-2.199 0.27,0.969 -1.98,0.5 -1.17,1.281 -1.48,-0.234 -3.11,0.567 -5.17,0.918 z m -30.41,-0.539 c 0.58,-0.425 1.37,-1.043 2.74,-1.199 0.7,-0.129 0.4,0.606 1.09,0.481 -0.99,0.515 -2.15,0.437 -3.83,0.718 z M 1515,820.664 c -0.93,0.391 -1.74,-0.898 -2.94,-0.957 0.84,-0.32 2.56,0.359 2.94,0.957 z m 229.83,33.289 c 0.51,0.235 2.02,0.078 2.84,0.539 -0.72,0.332 -2.76,0.442 -2.84,-0.539 z m -4.06,0.422 c 0.94,-0.898 2.56,-0.566 3.6,-0.254 -1.33,0.242 -1.56,0.664 -3.6,0.254 z m -16.08,-1.855 c 1.04,-0.118 3.68,0.332 6.19,0.507 3,0.215 6.26,0.098 7.72,0.879 0.54,-0.117 2.08,-0.761 1.55,-0.027 0.62,0.738 -0.77,0.269 -1.37,0.269 -3.36,-0.339 -6.35,-0.73 -9.25,-1.062 -1.64,-0.195 -3.62,0.703 -4.84,-0.566 z m -189.93,-25.801 c -0.54,0.586 -0.89,-0.489 -1.47,-0.469 0.55,-0.625 1.09,0.332 1.47,0.469 z m 478.87,49.453 c -0.66,-0.059 -0.49,0.723 -1.37,0.391 0.06,-1.067 1.49,-0.704 2.28,-0.997 -0.12,0.313 -0.36,0.528 -0.48,0.848 0.68,0.063 1.29,-0.457 1.78,0.07 -0.42,0.996 -2.58,0.567 -2.21,-0.312 z m 33.71,2.031 c 0.06,-0.242 -0.04,-0.383 -0.2,-0.43 0.23,-0.363 0.95,-0.214 1.36,-0.39 -0.3,0.351 -0.5,0.832 -1.16,0.82 z m -515.66,-51.797 c -0.09,0.235 -0.45,0.078 -0.51,0.364 -0.14,-0.227 -0.56,-0.247 -0.58,-0.54 -2.27,-0.468 0.45,-0.332 1.09,0.176 z m 496.86,51.621 c -0.39,-0.058 -0.49,-0.39 -0.4,-0.879 0.71,-0.078 2.4,-1.035 2.21,0.508 -0.67,0.481 -1.47,-0.515 -1.81,0.371 z M 1538.4,827.773 c 0.93,0.11 0.73,0.86 1.69,0.508 -0.22,0.703 -1.85,0.164 -1.69,-0.508 z m 498.85,50.977 c 0.22,-0.684 1.88,-0.742 2.26,-0.566 -0.72,0.222 -1.44,0.468 -2.26,0.566 z m -500.78,-50.215 c -0.89,-0.254 -1.67,-0.586 -2.54,-0.859 0.54,-0.242 2.4,0.195 2.54,0.859 z m -41.5,-7.285 c 0.12,-0.52 0.74,0.059 0.86,0.156 2.22,0.391 -0.3,0.449 -0.86,-0.156 z m 527.92,58.086 c 0.06,-0.84 1.21,-0.547 1.82,-0.789 -0.02,0.887 -1.13,0.613 -1.82,0.789 z m -85.99,-3.273 c 0.34,-0.301 0.98,-0.282 1.58,-0.34 0.13,0.84 -1.08,0.222 -1.58,0.34 z m -381.64,-42.184 c -0.26,-0.441 -1.51,-0.207 -1.16,-1.066 0.51,0.273 1.22,0.39 1.16,1.066 z m -51.28,-9.25 c 0.35,0.449 1.43,0.41 2.13,0.605 -0.59,0.293 -1.97,0.235 -2.13,-0.605 z m 59.53,12.117 c -0.69,0.051 -0.58,-0.469 -1.27,-0.418 0.28,-0.469 1.34,-0.293 1.27,0.418 z m 363.65,40.891 c 0.18,-0.813 1.96,-0.813 2.49,-0.496 -0.67,0.339 -1.59,0.398 -2.49,0.496 z m 100.92,5.769 c -0.66,-0.093 -0.54,-0.906 -1.53,-0.691 0.53,-0.508 0.82,-0.235 1.56,-0.164 -0.01,0.281 -0.02,0.574 -0.03,0.855 z m -6.74,0.41 c 0.5,-0.32 2.16,-0.789 2.46,-0.125 -0.62,0.235 -1.55,0.176 -2.46,0.125 z m 2.7,-0.339 c 0.8,-0.364 1.71,-0.235 2.48,-0.118 -0.88,0.176 -1.92,0.918 -2.48,0.118 z m -140.01,-6.602 c 0.04,-1.113 1.13,-0.359 1.8,-0.312 -0.41,0.312 -1.21,0.207 -1.8,0.312 z m 32.73,2.266 c 2.47,-1.211 6.03,-1.211 9.29,-1.575 -2.62,1.067 -6.31,0.95 -9.29,1.575 z m -2.71,0.254 c 0.21,-0.75 1.02,-0.879 2.07,-0.735 -0.08,0.91 -1.24,0.637 -2.07,0.735 z m 68.75,3.886 c 0.93,-1.269 3.59,-0.625 3.69,-1.777 0.28,-0.293 0.79,-0.371 1.37,-0.371 0.08,0.469 -0.36,0.39 -0.72,0.398 0.62,0.676 1.5,-0.203 2.46,0.117 -2.12,0.696 -4.3,1.321 -6.8,1.633 z m -102.38,-6.035 c -0.61,-0.359 1.66,-1.387 1.34,-0.117 -0.4,0.098 -1.28,-0.352 -1.34,0.117 z m 104.61,6.348 c 1.14,-0.703 2.64,-0.989 4.11,-1.321 -0.9,0.95 -2.51,1.118 -4.11,1.321 z m -107.3,-6.328 c 0.4,-0.391 1.18,-0.379 2.03,-0.274 -0.41,0.379 -1.2,0.371 -2.03,0.274 z m 104.61,6.425 c -0.36,-0.019 -0.75,-0.031 -1.12,-0.046 0.09,-0.325 0.99,-0.891 1.14,-0.383 -0.01,0.136 -0.02,0.285 -0.02,0.429 z m -665.96,-91.933 c 0.93,-1.074 2.08,0.555 3.17,0.957 -0.7,0.644 -2.16,-0.41 -3.17,-0.957 z m 253.39,51.914 c -0.6,-0.293 -1.31,-0.469 -1.89,-0.742 0.37,-0.313 1.93,0.136 1.89,0.742 z m 443.56,43.945 c -0.31,-0.156 -0.41,-0.488 -0.41,-0.879 0.72,0.266 0.96,-0.097 1.54,0.489 0.07,0.605 -1.22,-0.207 -1.13,0.39 z m -370.37,-32.773 c -0.31,0.449 -1.39,-0.11 -2.02,-0.047 0.26,-0.754 1.54,-0.156 2.02,0.047 z m 346.94,34.375 c -0.4,-0.176 -0.01,-0.391 0.02,-0.633 2.04,-0.219 4.36,-1.281 6.12,-1.035 -0.18,0.887 -1.2,0.418 -1.82,0.574 -1.42,0.32 -2.71,0.84 -4.32,1.094 z m 10.3,0.254 c 0.78,-0.828 1.81,0.019 2.93,-0.313 -0.76,1.106 -1.99,-0.039 -2.93,0.313 z m -254.88,-18.516 c 0.68,-0.488 1.75,0.215 2.45,0.059 0.56,-0.137 0.27,-0.684 0.75,-0.782 2.85,0.586 5.85,0.313 8.91,0.547 8.45,0.606 15.76,1.192 22.42,1.914 0.67,0.332 0.23,-0.683 0.94,-0.34 3.87,0.301 8.57,1.004 12.27,0.36 2.8,0.918 7.17,0.312 9.09,0.879 7.37,-0.774 16.1,0.469 22.83,0.176 -1.03,1.043 -3.9,-0.086 -5.02,0.847 -2.24,-0.808 -4.23,-0.097 -6.66,-0.398 -2.21,-0.266 -4.76,-0.02 -7.18,-0.02 -8.83,0 -18.71,-0.742 -28.8,-0.886 -0.62,-0.043 -0.73,-0.422 -0.38,-0.696 -1.11,0.469 -2.69,0.332 -4.09,0.43 -0.38,-0.067 -1.13,0.117 -0.84,-0.52 -0.57,0.227 -0.98,0.598 -1.64,0.703 -7.5,-0.996 -16.91,-0.906 -25.05,-2.273 z m 254.81,19.805 c -1.19,-0.274 -3.18,-0.098 -4.93,0 1.07,-1.524 2.04,0.136 4.07,-0.684 -0.11,-0.183 -0.19,-0.359 -0.18,-0.664 1.1,-0.168 0.28,1.055 1.3,0.488 0.11,0.489 -0.42,0.293 -0.45,0.625 -0.08,0.188 0.05,0.215 0.19,0.235 z m -58.28,-1.426 c 0.29,-0.742 1.43,-0.566 2.49,-0.508 5.75,-1.191 11.01,-1.914 16.97,-2.519 -6.12,1.418 -12.41,2.644 -19.46,3.027 z m 49.05,1.887 c 1.88,0.308 2.24,-0.957 4.08,-0.676 -0.12,0.715 -0.62,0.234 -0.27,1.055 -1.23,0.046 -3.18,0.847 -3.81,-0.379 z m -6.29,0.144 c 0.86,0.078 1.64,0.078 2.24,-0.117 -0.34,0.957 -1.93,1.133 -2.24,0.117 z m -46.83,-1.621 c 0.17,-0.703 0.86,-0.254 1.36,-0.137 -0.26,0.762 -0.57,0 -1.36,0.137 z m -9.52,1.152 c 0.39,-0.82 2.15,-0.117 3.16,-0.234 -0.78,0.352 -2.2,0.469 -3.16,0.234 z m 62.03,3.536 c 1.45,-1.25 4.27,-0.879 5.66,-1.055 -1.14,0.957 -3.62,0.469 -5.66,1.055 z m -17.05,-0.586 c 0.58,-0.274 2.66,-0.782 3.14,-0.071 -0.64,0.051 -1.8,0.188 -3.14,0.071 z m 6.93,0.547 c 1.19,-0.911 1.95,-0.364 3.16,-0.071 -0.99,0.676 -1.58,-0.359 -3.16,0.071 z m -46.87,-1.661 c 0.58,-0.695 1.96,-0.507 3.19,-0.468 -0.94,0.8 -1.92,0.144 -3.19,0.468 z m 42.56,2.325 c 0.05,-0.176 0.25,-0.215 0.26,-0.43 0,-0.215 -0.27,-0.176 -0.43,-0.234 0.3,-0.633 0.83,0.195 1.09,0.273 -0.08,0.371 -0.41,0.469 -0.92,0.391 z m 7.59,1.015 c -0.32,0.528 -1.37,-0.019 -1.79,-0.097 0.79,-0.657 1.17,0.039 1.79,0.097 z m -331.37,-29.719 c -1.94,-0.417 -2.66,-0.554 -4.6,-0.847 0.99,-0.379 1.98,-0.098 3.1,0.215 0.41,0.097 1.53,-0.176 1.5,0.632 z m 317.01,29.231 c 0.11,-0.43 1.02,0.027 0.73,-0.84 0.35,1.348 1.89,0.977 3.31,1.043 -0.19,0.383 -3.3,0.578 -4.04,-0.203 z M 1661.7,868.105 c -2.05,-0.468 -3.51,-0.273 -4.06,-1.425 1.68,0.117 2.33,0.324 4.19,0.578 -0.04,0.269 -0.08,0.555 -0.13,0.847 z m 75,9.063 c -0.31,0.449 -1.39,-0.066 -2.03,-0.012 -0.25,-0.32 1.77,-0.183 2.03,0.012 z m 178.58,16.16 c -0.19,-0.379 -0.67,-0.515 -1.07,-0.723 3.08,-0.593 6.15,-0.769 8.81,-0.73 -0.31,0.977 -0.9,0.234 -1.82,0.535 -1.53,0.442 -3.04,0.332 -5.2,0.317 -0.22,0.211 -0.84,0.007 -0.72,0.601 z m 22.54,2.688 c -0.76,0.089 -1.04,-0.196 -1.57,-0.301 0.33,-0.344 1.73,-0.703 1.57,0.301 z m -20.84,-1.289 c 0.12,-0.704 1.31,-0.254 2.04,-0.293 -0.33,0.461 -1.72,0.539 -2.04,0.293 z m 16.5,1.699 c -0.77,0.449 -2.43,-0.078 -3.59,-0.012 0.88,-1.004 2.48,-0.301 3.59,0.012 z m -23.78,-0.645 c -0.36,-0.078 -0.6,0.313 -0.67,-0.051 -0.58,0.149 -1.23,0.2 -2.02,0.071 -0.82,0.039 -0.28,-0.41 0.24,-0.196 0.57,0 2.6,-0.515 2.45,0.176 z m 12.96,1.27 c 0.63,-0.645 1.35,0.137 2.29,-0.293 -0.37,0.976 -1.33,0.371 -2.29,0.293 z m -2.06,0.508 c 0.45,0.031 0.89,0.058 1.34,0.086 -0.07,0.324 -1.52,0.773 -1.34,-0.086 z m 38.03,3.32 c -0.3,-0.02 -0.59,-0.039 -0.88,-0.059 0.12,-0.554 0.62,-0.683 1.15,-0.8 0.02,0.402 -0.28,0.441 -0.27,0.859 z m -145.42,-10.188 c -1,-0.183 -2.09,0.247 -2.64,-0.671 1.23,0.351 2.46,-0.196 3.13,0.285 0.17,0.418 -1.3,0.008 -0.49,0.386 z m 2.45,0.442 c -0.54,0.019 -0.21,-0.645 -0.63,-0.703 0.01,-0.469 0.8,-0.032 1.15,-0.117 0.68,0.246 -0.42,0.253 -0.71,0.156 0.1,0.183 0.22,0.371 0.19,0.664 z m 7.13,0.644 c 0.02,-0.976 2.36,-0.105 2.92,-0.168 -0.73,0.813 -1.47,0.2 -2.92,0.168 z m 108.56,9.493 c -0.82,-0.254 -0.1,-0.879 0.73,-0.618 0.31,0.793 -0.77,0.09 -0.73,0.618 z M 1797.2,891.133 c 4.71,-0.703 11.92,0.449 16.4,0.254 -2.75,0.847 -5.31,-0.203 -7.7,0.359 -2.47,-0.613 -5.59,-0.047 -8.7,-0.613 z m 8.92,0.847 c 2.51,0.188 3.79,0.383 5.83,0.11 0.07,0.918 -3.38,0.41 -4.31,0.254 -0.22,0.488 -1.49,0.344 -1.52,-0.364 z m -18.22,-0.242 c 0.52,-0.625 1.27,-0.09 2.49,-0.183 -0.36,0.593 -1.59,0.222 -2.49,0.183 z m -11.87,-0.761 c -0.66,0.539 -1.83,0.207 -2.24,-0.02 -2.6,-0.43 1.3,-0.156 2.24,0.02 z m -6.73,-0.059 c -1.25,-0.566 -2.93,-0.051 -4.68,-0.488 0.7,-0.594 4.15,-0.301 4.68,0.488 z m 87.45,8.105 c -0.57,-0.195 -0.46,-0.949 -1.25,-0.964 -1.05,-0.266 1.43,-0.364 1.59,-0.09 0.02,0.508 -0.12,0.808 -0.34,1.054 z m -37.29,-3.203 c 0.33,-0.261 1.13,-0.359 1.36,-0.097 -0.21,0.703 -0.88,0.234 -1.36,0.097 z m -68.91,-6.465 c 1.9,-0.156 4.04,-0.007 6.28,0.254 -1,0.536 -4.7,-0.078 -6.28,-0.254 z m 94.5,9.559 c -0.7,0.195 -0.49,-0.379 -0.84,-0.496 0.22,-0.305 0.63,-0.41 1.16,-0.332 -0.2,0.176 -0.29,0.449 -0.32,0.828 z m -85.98,-7.117 c -0.38,-0.449 0.16,-0.383 0.12,-1.074 0.5,0.058 1.03,0.105 1.56,0.168 0.18,0.203 0.06,0.593 0.36,0.691 -0.73,0.93 -1.17,-0.547 -2.04,0.215 z m 69.13,6.758 c 0.06,-0.586 1.1,-0.418 1.36,-0.098 -0.36,0.508 -0.8,0.313 -1.36,0.098 z m 9.09,1.445 c -0.25,-0.129 -0.42,-0.312 -0.38,-0.684 -0.22,-0.019 -0.44,-0.039 -0.67,-0.058 0.33,-0.547 1.17,0.097 1.57,0.129 -0.16,0.215 -0.55,0.183 -0.52,0.613 z m 23.26,4.52 c -0.23,-0.086 -0.54,-0.418 -0.17,-0.438 0.87,-1.309 4.09,0.078 5.46,-0.664 -0.83,1.406 -3.78,0.449 -5.29,1.102 z m -4.27,-0.125 c -0.02,-0.887 2.87,-0.762 2.94,0.019 -0.71,0.313 -1.89,-0.273 -2.94,-0.019 z m -22.93,1.55 c 0.01,-1.101 1.74,-0.437 2.29,-0.242 -0.54,0.332 -1.35,0.352 -2.29,0.242 z m -3.37,-0.086 c 0.46,-0.937 1.61,0.227 2.29,-0.234 -0.19,0.742 -1.5,0.195 -2.29,0.234 z m 155.69,19.493 c 0.22,-0.762 1.38,-0.516 2.29,-0.547 -0.55,0.41 -1.46,0.449 -2.29,0.547 z m -250.28,-18.575 c 1.42,-0.664 4.79,0.137 6.49,0.528 -1.73,-0.059 -4.32,0.105 -6.49,-0.528 z m 234.83,19.121 c 0.38,-0.351 1.04,-0.41 1.84,-0.332 -0.34,0.411 -1.52,0.625 -1.84,0.332 z m 7.66,0.821 c 0.2,-0.867 1.54,-0.52 2.53,-0.528 -0.49,0.547 -1.79,0.235 -2.53,0.528 z m -4.56,0.644 c 0.42,-0.664 0.79,-0.508 1.6,-0.351 -0.25,0.429 -0.89,0.422 -1.6,0.351 z m -92.75,-5.703 c 0.4,-0.351 1.06,-0.41 1.84,-0.305 -0.35,0.598 -1.31,0.508 -1.84,0.305 z m 87.94,6.106 c 0.47,0.027 0.93,0.047 1.38,0.066 -0.07,0.332 -1.55,0.789 -1.38,-0.066 z m -9.35,1.238 c 0.79,0.488 1.5,0.105 2.49,0.137 -0.34,0.476 -2.59,1.047 -2.49,-0.137 z m -5.09,1.476 c 0.07,-0.625 0.96,-0.343 1.61,-0.351 -0.06,0.613 -0.97,0.34 -1.61,0.351 z m -10.76,1.336 c 0.61,-0.664 1.11,-0.019 2.06,-0.312 -0.28,0.547 -1.25,0.351 -2.06,0.312 z m -93.03,-5.8 c -1.2,-0.672 -3.53,-0.203 -4.49,-0.606 0.61,-1.18 3.36,0.039 4.59,-0.476 -0.2,0.671 0.35,0.691 -0.1,1.082 z m 86.17,6.699 c 1.51,-0.574 3.33,-0.86 5.5,-0.762 -1.94,0.527 -3.06,0.684 -5.5,0.762 z m -5.05,0.566 c 0.64,-0.293 1.52,-0.343 2.52,-0.285 -0.77,0.434 -1.54,0.637 -2.52,0.285 z m -144.12,-10.578 c 0.45,-0.183 0.85,-0.457 1.42,-0.508 0.05,0.785 -0.74,0.578 -1.42,0.508 z m 3.37,0.324 c 0.15,-0.742 1.6,-1.113 1.6,-0.058 -0.74,-0.188 -1.06,0.051 -1.6,0.058 z m 134.99,11.211 c -1.06,-0.254 0.98,-1.093 1.42,-0.566 1.27,-0.41 2.61,-0.281 3.66,-0.43 -0.88,1.192 -3.56,0.442 -5.08,0.996 z m -151.46,-12.187 c -0.93,-0.352 -2.7,-0.137 -4.26,-0.449 1.02,-0.547 3.65,-0.508 4.26,0.449 z m 0.46,0.039 c 0.34,-1.055 3.25,-0.371 4.09,-0.02 1.06,-0.507 3.98,-0.324 4.72,0.254 -2.76,0.188 -5.21,-0.183 -8.81,-0.234 z m 12.19,2.734 c 0.32,-0.82 2.11,0.059 2.76,-0.371 0.41,1.231 -2.22,1.387 -2.76,0.371 z m 3.08,0.957 c -0.44,-0.359 0.37,-1.308 1.04,-1.191 0.26,0.43 -0.37,0.918 0.8,0.937 0.28,0.508 -1.73,0 -1.84,0.254 z m 103.23,18.438 c -0.24,-0.789 -0.42,-0.391 -1.06,-0.735 -0.01,-0.613 1.36,0.278 1.38,-0.339 0.55,-0.047 -0.21,0.976 0.63,0.695 0.08,0.613 -1.08,-0.227 -0.95,0.379 z M 1730.5,929.934 c 0.52,-0.696 0.74,0.457 1.32,0.359 -0.33,0.82 -0.9,-0.137 -1.32,-0.359 z m 84.82,9.539 c -0.15,-0.743 0.76,-0.274 1.17,-0.332 0.16,0.742 -0.72,0.273 -1.17,0.332 z m 64.21,5.488 c -0.01,-0.188 0.12,-0.195 0.26,-0.195 0.04,-0.176 -0.09,-0.203 -0.21,-0.235 1.22,-0.468 1.55,0.266 2.93,0.215 -0.21,0.391 -2.25,0.078 -2.98,0.215 z m -3.87,0.137 c -0.66,0.007 -1.25,-0.039 -1.1,-0.723 0.61,0.059 1.46,-0.098 1.1,0.723 z m -23.14,-1.582 c 0.38,-0.215 0.63,-0.567 1.21,-0.547 -0.01,0.215 0.26,0.195 0.44,0.254 -0.38,0.3 -1.04,0.261 -1.65,0.293 z m 21.07,1.648 c -0.33,-0.125 -1.14,-0.918 -1.55,-0.34 -0.7,-0.636 2.09,-0.957 1.55,0.34 z m -18.38,-0.984 c -0.31,-0.215 -0.68,-0.379 -0.61,-0.918 0.29,-0.164 0.66,-0.235 1.17,-0.125 -0.05,0.254 0.01,0.386 0.19,0.449 -0.07,0.398 -0.77,0.086 -0.75,0.594 z m 0.69,0.058 c 0.41,-1.054 2.51,0.078 4.11,-0.117 -1.05,0.469 -2.86,0.156 -4.11,0.117 z m 10.39,1.028 c 0.85,0.488 0.72,-0.383 1.59,0.117 -0.21,0.215 -1.72,0.789 -1.59,-0.117 z m -5.22,-0.2 c 0.89,0.032 1.65,0.129 2.25,0.403 -0.42,0.429 -2.01,0.371 -2.25,-0.403 z m -40.19,-1.843 c -0.35,0.39 -1.94,0.078 -2.25,-0.203 0.6,-0.61 1.35,0.378 2.25,0.203 z m 28.52,2.441 c 0.04,-0.254 -0.03,-0.41 -0.22,-0.469 0.89,-0.019 2.57,-0.312 3.12,0.918 -1.35,0.242 -1.36,-0.468 -2.9,-0.449 z m -3.45,0.137 c 0.06,-0.235 0.42,-0.137 0.7,-0.156 0.27,0 0.21,-0.379 0.28,-0.625 0.78,-0.086 0.8,0.429 0.83,0.937 -0.67,-0.625 -1.01,0.527 -1.81,-0.156 z m -3.69,0.351 c -0.22,-0.339 -0.11,-0.976 -0.81,-0.937 1.16,-0.332 3.02,0.129 4.33,-0.078 -0.47,1.14 -2.1,0.957 -3.52,1.015 z m -23.57,-1.406 c -0.68,-0.808 -1.76,-0.098 -2.48,-0.43 0.53,-0.507 1.71,-0.273 2.74,-0.195 0.03,0.195 -0.11,0.195 -0.23,0.195 0,0.137 -0.03,0.293 -0.03,0.43 z m 4.93,0.664 c -0.17,-0.051 -0.2,-0.234 -0.43,-0.254 0.01,-0.144 0.03,-0.293 0.04,-0.429 0.52,0.046 1.06,0.097 1.58,0.136 -0.13,0.481 -1.24,-0.136 -1.19,0.547 z m 12.45,1.074 c -1.35,-0.742 -2.11,-0.625 -3.41,-0.273 -0.04,-0.535 0.48,-0.449 0.34,-1.066 1.4,-0.047 2.1,0.46 3.38,0.507 -0.44,0.403 0.13,0.442 -0.31,0.832 z m -204.18,-22.746 c -0.57,-0.066 -1.09,-0.125 -1.31,-0.41 0.05,-0.32 1.73,-0.23 1.31,0.41 z m 199.87,22.395 c -0.43,0.566 -1.22,-0.215 -1.54,-0.363 0.33,-0.504 0.96,0.414 1.54,0.363 z m -16.84,-0.41 c 0.19,-0.176 0.29,-0.469 0.32,-0.84 1.28,-0.149 1.52,0.508 2.44,0.644 -0.5,1.016 -1.79,0.684 -2.76,0.196 z m -26.33,-1.192 c -0.54,-0.254 -0.88,-0.644 -1.03,-1.172 0.68,0.059 1.35,0.118 2.02,0.196 -0.01,0.722 -0.96,-0.137 -0.99,0.976 z m -13.19,-0.652 c 0.1,-0.617 0.98,-0.305 1.63,-0.274 0.07,0.829 -1.11,0.165 -1.63,0.274 z m -17.98,-0.566 c -0.4,0.015 -0.44,-0.254 -0.2,-0.247 0.1,-0.449 -0.79,-0.175 -1.11,-0.324 -0.67,-0.418 2.67,-0.203 1.31,0.571 z M 1532.91,913.34 c 0.17,-0.457 1.11,0.098 1.6,0.058 -0.32,0.711 -1.29,0.567 -1.6,-0.058 z m 10.94,2.91 c -0.91,-0.449 -1.34,-0.078 -2.18,-0.566 0.27,-0.254 2.44,-0.176 2.18,0.566 z m 4.2,0.906 c 2.5,-0.066 5.36,1.242 8.21,1.543 0.77,0.774 1.97,0.52 2.32,1.242 -2.87,-0.73 -7.81,-1.816 -10.53,-2.785 z m 19.39,4.629 c -2.51,-0.066 -5.33,-0.437 -7.06,-1.551 0.43,-0.82 1.75,0.039 2.23,0.352 2,0.059 3.32,0.195 4.83,1.199 z m 0.16,0.461 c 1,-1.23 4.2,0.359 5.35,0.84 1.71,0.039 4.62,0.676 6.44,1.223 0.28,0.007 0.39,0.105 0.42,0.281 -0.01,0.246 -0.12,0.371 -0.29,0.39 -2.15,-0.605 -4.76,-0.722 -6.38,-1.64 -2.53,-0.36 -3.89,-0.762 -5.54,-1.094 z m 12.37,2.805 c 4.92,-0.227 11.85,2.078 15.34,2.976 -0.98,0.789 -2.31,-0.254 -3.6,-0.539 -4.24,-0.925 -7.6,-1.179 -11.74,-2.437 z m 128.7,18.648 c 0.31,-0.359 1.18,-0.027 1.63,-0.254 -0.24,0.735 -1.17,0.403 -1.63,0.254 z m -109.71,-14.246 c -0.51,-0.383 -1.76,-0.273 -1.64,-1.125 0.79,0.258 1.5,-0.32 2,0.305 0.03,0.469 -0.24,0.547 -0.36,0.82 z m 210.47,25.527 c -0.7,-0.402 -1.01,-0.175 -1.82,-0.175 -0.19,-0.703 2.12,-0.489 1.82,0.175 z m -14.15,-0.468 c 0.13,-0.157 0.26,-0.324 0.29,-0.625 0.48,0.593 0.52,-0.403 1.38,-0.078 -0.57,0.214 -0.77,0.871 -1.67,0.703 z m 2.9,0.488 c -0.69,0.156 -0.35,-0.496 -0.35,-0.898 0.82,-0.254 2.07,0.019 3.19,0.097 -0.98,0.828 -2.75,-0.39 -2.84,0.801 z m -16.78,-1.191 c -0.72,-0.079 0.23,-0.996 -1.31,-0.782 -0.37,-0.332 2.24,-0.117 2.3,0 -0.26,0.371 -0.87,0.286 -0.99,0.782 z m -32.23,-2.688 c 0.3,-0.828 1.25,-0.223 1.87,-0.23 4.38,-0.11 10.96,0.554 16.56,1.304 0.49,-0.32 1.78,-0.613 2.04,0.207 -3.15,0.274 -6.54,-0.566 -9.98,-0.82 -3.01,-0.227 -6.49,-0.273 -10.49,-0.461 z m 71.26,-5.769 c 1.01,0 3.2,0.39 5.22,0.246 0.1,0.261 0.21,0.507 0.4,0.672 1.32,-0.555 2.45,0.566 3.91,-0.293 0.39,-0.977 -1,0.273 -1.08,-0.539 0.38,-0.094 0.42,-0.614 0.76,-0.797 0.53,0.379 1.73,0.203 2.2,0.632 0.45,-1.14 2.61,-0.078 2.39,-1.113 -4.06,0.371 -8.81,-0.039 -13.21,-0.058 -0.04,1.152 -1.31,0.898 -1.74,1.562 0.4,0.059 0.07,0.723 0.61,0.723 0.54,-0.449 0.24,-0.567 0.54,-1.035 z M 1401.1,746.465 c 0.73,0.254 1.05,0.781 1.26,1.367 -0.64,0.82 -1.66,0.996 -2.36,1.711 -1.23,-0.117 -1.2,-1.398 -2.46,-0.969 -0.53,-0.078 -0.41,-0.586 -0.71,-0.808 -0.77,0.007 -0.75,-0.493 -1.43,-0.532 -0.57,-0.117 -0.58,-0.945 -0.17,-0.261 1.52,0.293 3.19,0.82 4.49,0.73 0.49,-0.359 0.89,-0.887 1.38,-1.238 z m -1.71,8.008 c 0.42,-0.567 0.81,-1.172 1.59,-1.192 -0.47,-1.551 0.96,-1.894 1.32,-3.039 0.63,-0.097 1.58,-0.699 2.21,0.031 -0.09,0.247 -0.42,0.098 -0.7,0.079 0.3,0.41 0.66,0.8 1.37,0.949 -0.16,0.41 -0.67,0.293 -0.83,0.703 0.87,0.203 1.41,-0.109 2.04,-0.227 -2.31,0.606 -4.18,3.203 -7,2.696 z m -35.78,0.871 c 0.18,0.047 0.11,0.293 0.11,0.469 -0.7,-0.969 -0.83,-0.176 -0.62,0.742 -0.44,-0.266 -0.27,-0.891 -0.87,-1.086 1.21,-1.114 -0.38,-2.473 -1.47,-2.317 -0.18,-1.773 -1.04,-3.074 -3.47,-3.425 3.24,-0.286 7.85,2.05 11.98,3.105 -3.37,-0.137 -4.88,-1.191 -8.04,-1.785 0.12,1.844 1.58,2.871 2.38,4.297 z m -6.75,0.261 c -0.34,-0.898 -1.47,-2.128 -1.63,-3.679 0.38,0.117 0.51,-0.168 0.91,-0.024 -0.14,0.754 0.24,1.164 0.78,1.516 -0.37,0.586 -0.53,-0.391 -0.81,-0.43 0.2,0.918 1.07,1.387 0.75,2.617 z m -6.34,-9.394 c -0.35,0.156 -1.21,-0.918 -1.99,-1.106 0.86,-0.464 1.5,0.735 1.99,1.106 z m 9.51,14.082 c -0.69,0.371 -0.97,-1.063 -1.46,-1.426 0.63,-0.32 0.83,1.16 1.46,1.426 z m 78.58,28.477 c -0.68,-0.489 -0.9,-1.25 -1.68,-1.661 0.3,-0.507 0.86,0.606 1.33,0.039 -0.39,0.274 0.24,0.735 0.35,1.622 z m 1.06,1.308 c -0.44,0.078 -3.63,-1.133 -3.99,-2.344 1.17,0.879 2.56,1.629 3.99,2.344 z m -4.07,2.488 c -0.59,0.715 -2.43,-1.316 -1.47,-0.503 0.78,-0.02 0.78,0.476 1.47,0.503 z m 76.09,26.645 c -0.8,0.594 -1.29,-0.598 -2.13,-0.598 0.52,-0.41 1.48,0.469 2.13,0.598 z m 38.19,18.594 c -6.38,-1.36 -16.53,-4.231 -22.58,-6.887 7.33,2.441 14.96,4.668 22.58,6.887 z m 253.69,87.566 c -0.46,0.098 -0.57,0.606 -0.97,0.762 -2.99,-0.469 -5.6,-0.84 -8.31,-1.004 1.87,-1.066 4.34,-0.41 6.62,-0.234 3.85,0.3 8.52,0.039 13.14,0.359 0.23,-0.195 0.48,-0.391 0.73,-0.586 0.69,1.008 2.42,0.332 4.26,0.391 3.23,0.078 6.31,0.546 8.38,0.312 -0.05,0.305 -0.11,0.606 0.14,0.664 -1.15,0.293 -4.26,-0.683 -5.23,0.188 -0.39,-0.032 -0.57,-0.215 -0.62,-0.5 -0.66,0.644 0,0.39 -0.71,0.156 -2.23,-0.742 -6.28,0.684 -9.26,-0.41 -0.36,0.215 -0.62,0.566 -1,0.781 -0.6,-0.496 -2.58,-1.238 -2.46,-0.234 -1.47,0.195 -3.27,-0.196 -4.71,-0.645 z m 117.29,-34.707 c -0.55,-0.019 -0.36,-0.293 0.01,-0.234 2.1,-0.606 3.9,-0.176 5.68,-0.938 0.54,0.039 0.65,0.41 1.33,0.313 3.48,-0.684 7.83,-1.582 11.34,-1.485 -0.3,0.684 -1.28,0.606 -2.28,0.508 -3.23,0.547 -5.84,1.223 -9.73,1.152 -0.78,0.313 -1.73,0.418 -2.52,0.704 -0.91,-0.911 -2.58,-0.098 -3.83,-0.02 z m 18.59,-2.344 c 0.52,-0.644 1.8,-0.488 2.93,-0.468 4.09,-0.879 6.91,-1.211 11.56,-1.719 -0.18,0.984 -0.8,0.273 -1.84,0.547 -2.13,0.742 -4.57,0.476 -7.04,1.34 -0.38,-0.032 -0.74,-0.051 -1.11,-0.071 -1.25,0.469 -3.22,0.664 -4.5,0.371 z m -54.06,7.696 c 0.07,-0.411 -2.29,-0.411 -1.55,-0.11 -2.74,0.676 -6.14,-0.691 -8.4,0.676 -0.52,-0.535 -1.07,-0.312 -1.52,-0.547 -0.48,0.235 -1.16,0.254 -1.22,0.985 -0.36,-0.829 -1.5,-1.024 -2.83,-1.082 4.54,-0.711 7.47,-0.997 12.18,-0.168 0.04,-0.243 -0.02,-0.387 -0.2,-0.438 0.83,-0.586 4.55,0.566 5.24,-0.93 0.62,0.383 0.72,0.063 1.54,0.344 -0.76,-1.25 -2.94,-0.801 -4.64,-0.566 -1.24,0.175 -1.89,0.664 -2.51,0.039 -0.24,0.039 -0.18,0.422 -0.48,0.398 -0.62,0.129 -0.56,-0.359 -1.09,-0.301 -0.23,0.215 -0.84,0 -0.73,0.594 -3.14,-1.14 -9.41,0.891 -11.36,-1.082 1.22,0.496 1.76,-0.351 2.9,0.227 2.8,-0.442 5.8,-0.793 8.08,-0.254 1.74,-0.766 3.59,-0.871 5.47,-0.461 1.61,-0.625 4.48,-0.742 6.32,-0.41 0.48,0.156 0.34,-0.391 0.69,-0.371 8.96,0.136 16.15,-2.039 24.37,-1.164 1.14,-0.399 1.31,-0.477 2.93,-0.243 -2.47,0.918 -6.24,0.391 -8.21,1.856 1.69,-0.086 2.18,0.195 3.8,0.039 -1.37,0.937 -3.19,0.41 -4.99,0.527 -0.49,0.156 -0.42,0.918 -0.76,1.25 -1.01,-0.222 -2.29,0.086 -2.67,-0.176 0.34,-0.312 0.91,-0.39 1.59,-0.332 -0.48,-1.074 -2.43,0.188 -2.85,-1.054 -0.9,0.84 -3.45,-0.899 -3.88,0.82 0.54,0.352 0.91,0.039 1.8,0.117 -2.08,0.723 -5.22,0.274 -7.28,1.016 -0.09,0.469 0.78,0.144 1.11,0.293 -0.6,0.957 -1.43,-0.645 -2.67,-0.418 0.04,-0.422 0.61,-0.227 0.51,-0.832 1.19,0.39 2.54,0.801 3.39,-0.188 0.91,0.422 2.06,0.676 2.7,-0.242 -1.58,-1.269 -5.17,-0.058 -7.86,0.098 -1.08,-0.508 -2.82,-0.352 -3.62,0.176 0.96,0.703 2.23,1.191 3.74,0.918 0.9,-0.059 -0.22,-0.86 0.96,-0.579 -1.1,2.141 -5.45,0.305 -7.32,1.633 -0.45,1.094 1.47,0.235 1.25,1.172 -1.06,-0.723 -3.88,-0.547 -1.93,-1.23 z m -17.95,7.312 c 7.04,-0.379 15.13,-0.879 21.99,-1.387 0.47,0.161 0.33,-0.386 0.67,-0.386 3.07,0.484 6.51,-0.16 8.85,-0.45 -0.4,1.305 -2.39,0.965 -3.47,1.063 -1.31,0.105 -2.76,0.027 -4.05,0.137 -4.27,0.371 -7.89,1.23 -12.52,1.25 -0.93,0 -1.9,0.5 -2.75,0.449 -2.25,-0.156 -5.18,-0.117 -7.4,-0.359 -0.23,-0.012 -1.43,0.593 -1.32,-0.317 z m 38.08,-8.699 c -0.57,0.781 -2.43,0.098 -3.41,0.43 0.12,-0.352 0.72,-0.157 0.51,-0.84 0.35,0 0.86,0.156 0.92,-0.156 -0.19,0.937 1.45,0.378 1.98,0.566 z m -14.72,1.348 c 0.67,-0.391 2.42,-0.391 2.48,-0.039 -0.66,0.214 -1.57,0.136 -2.48,0.039 z m -68.45,-4.454 c -0.59,0.743 -2.57,-0.109 -3.42,0.352 -0.57,-0.469 -1.81,0.156 -0.82,-0.52 1.61,0.278 2.6,-0.132 4.24,0.168 z m -32.94,62.207 c -0.19,-0.371 2.11,0.071 2.15,-0.878 0.29,0.097 0.13,0.546 0.13,0.878 1.37,-0.144 2.91,-0.644 3.32,0.965 -1.49,-1.043 -3.4,-0.613 -5.6,-0.965 z m 151.77,-78.281 c 0.71,-0.664 1.85,-0.578 2.73,-0.703 6.33,-0.891 13.04,-2.383 18.96,-2.851 4.39,-1.297 9.01,-2.188 13.78,-2.754 0.57,-0.137 0.91,-0.528 1.39,-0.789 3.8,-0.247 6.8,-1.379 10.36,-1.899 -2.34,1.242 -5.07,1.281 -7.68,1.809 -0.93,0.195 -1.81,0.73 -2.73,0.949 -4.08,0.945 -8.27,1.512 -12.42,2.398 -8.16,1.75 -16.52,2.571 -24.39,3.84 z m 83.2,25.762 c 0.39,0.176 0.14,0.508 -0.23,0.43 0.49,0.644 1.37,-0.215 2.03,-0.137 -0.02,-0.274 -0.39,-0.215 -0.67,-0.254 0.23,-0.352 0.73,-0.449 1.37,-0.371 -0.01,0.207 -0.28,0.156 -0.44,0.195 0.01,0.254 0.38,0.203 0.64,0.235 -1.38,0.754 -4.14,1.035 -5.44,1.113 -0.41,-0.879 2.28,-0.481 2.74,-1.211 z m -27.37,6.711 c -0.01,-1.125 2.19,-0.774 2.78,-1.399 0.28,0.235 0.66,0.379 0.86,0.684 0.28,-0.469 1.37,-0.098 1.18,-1.035 3.94,-0.684 8.39,-1.914 12.54,-2.52 -0.51,1.133 -3.77,1.348 -5.72,1.731 -3.72,1.031 -7.43,2.039 -11.64,2.539 z m -3.87,0.906 c -0.8,-0.281 1.15,-0.676 0.48,-0.84 0.82,-0.136 2.96,-0.664 2.92,0.34 -1.81,-0.183 -2.24,0.5 -3.4,0.5 z m -4.29,-42.344 c 1.31,-0.656 2.96,-0.925 4.75,-1.086 -1.35,0.637 -2.87,1.028 -4.75,1.086 z m -79.39,8.282 c -0.09,0.488 -0.98,0.058 -1.12,-0.078 0.38,-0.293 1.02,-0.286 1.6,-0.333 0.42,0.196 -0.16,0.235 -0.46,0.196 -0.25,0.019 -0.14,0.207 -0.02,0.215 z m -11.49,0.937 c -0.56,0.195 1.2,-0.586 2.05,-0.281 -0.43,0.379 -1.19,0.379 -2.05,0.281 z m -0.65,-0.051 c -0.45,0.453 -1.35,0.383 -2.25,0.286 -0.16,0.285 -0.87,-0.02 -0.92,0.351 -0.53,-0.019 -1.05,-0.066 -1.58,-0.098 -0.96,-0.07 0,-0.371 0.47,-0.175 0.41,0.222 0.79,-0.606 0.87,0.058 1.23,-0.547 1.73,-0.437 3.41,-0.422 z m 55.6,13.34 c -0.1,-0.437 1.08,-0.652 1.15,-0.152 1.55,-0.996 0.37,0.633 -1.15,0.152 z m 3.2,1.797 c 2.82,-0.711 5.85,-1.211 9.07,-1.473 -0.08,0.45 -0.98,0.02 -0.94,0.606 -3.34,-0.391 -5.04,1.016 -8.13,0.867 z m 5.42,-4.422 c 2.54,-1.152 5.39,-0.625 7.9,-1.582 -1.36,1.445 -4.52,1.543 -7.9,1.582 z m -31.42,-9.414 c 2.12,-0.156 4.48,-1.199 6.32,-0.918 -1.86,0.457 -4.38,1.328 -6.32,0.918 z m 110.55,-5.437 c -0.06,-0.266 1.48,-0.832 2.49,-0.793 -0.02,0.222 -0.02,0.437 -0.04,0.656 -0.66,0.144 -1.51,-0.5 -2.45,0.137 z m -8.86,8.367 c 1.39,0.234 3.49,-0.762 4.99,-1.153 0.27,0.262 0.37,0.645 1.1,0.469 -0.97,0.43 -3.99,-0.351 -4.55,1.59 -1.67,-0.309 -2.56,-0.223 -3.78,-0.351 1.15,-1.122 3.29,-1.219 5.22,-1.551 0,0.468 -2.29,0.488 -2.98,0.996 z m 22.37,-5.156 c -0.57,-0.235 -1.35,-0.293 -2.21,-0.274 0.48,-0.469 2.37,-0.703 2.21,0.274 z m -22.61,-5.02 c -0.11,0.352 0.17,0.41 0.43,0.449 -0.25,0.606 -0.95,-0.097 -1.34,-0.058 0.01,0.215 0.27,0.195 0.44,0.234 -0.07,0.391 -0.42,0.488 -0.93,0.41 0.4,-0.429 0.01,-0.273 0.05,-0.859 0.4,-0.188 1.13,-0.039 1.37,-0.391 0.24,0.039 0.1,0.215 -0.02,0.215 z m -15.23,5.496 c 1.64,-1.18 5.01,-1.668 6.81,-1.902 -2.21,1.035 -4.52,1.426 -6.81,1.902 z m -9.51,2.434 c -0.05,0.468 0.8,0.129 1.11,0.261 -0.21,0.372 -0.72,0.454 -1.35,0.383 0.04,-0.39 -0.27,-0.468 -0.19,-0.879 1.52,-0.449 2.98,-0.937 4.75,-1.093 0.53,0.527 -0.33,0.379 -0.26,1.054 -0.64,-0.254 -0.93,-0.261 -1.57,-0.058 0.05,-0.41 0.75,-0.117 0.69,-0.625 -0.99,0.398 -2.17,0.566 -3.18,0.957 z m -15.45,4.531 c 0.15,-0.762 0.03,-0.684 -1.31,-0.496 0.13,-0.434 -0.42,-0.539 -0.45,-0.234 -0.5,-0.625 0.8,-0.579 1.38,-0.375 1.15,-0.348 2.63,-0.399 4.27,-0.235 -1.09,0.656 -3.04,0.402 -3.89,1.34 z m 64.45,-9.766 c 0.07,-0.449 0.84,-0.175 0.92,-0.625 2.53,-0.371 0.15,0.45 -0.92,0.625 z m -11.34,4.414 c 0.5,-0.437 1.33,-0.566 2.04,-0.8 -0.15,0.832 -1.4,0.488 -2.04,0.8 z m -51.25,46.934 c 0.41,-0.645 1.64,-0.383 2.3,-0.762 -0.44,0.598 -1.41,0.625 -2.3,0.762 z m 2.93,-38.562 c 0.02,-0.879 0.87,-0.891 1.83,-0.786 -0.16,0.168 -0.38,0.578 -0.03,0.637 -0.34,0.586 -1.25,0.391 -1.8,0.149 z m 12.66,2.253 c 0.66,-0.363 1.34,-0.711 2.49,-0.546 -0.62,0.683 -1.45,0.078 -2.49,0.546 z m -75.64,13.497 c 0.49,-1.016 3.96,-0.743 5.52,-1.407 -1.16,1.231 -3.93,0.696 -5.52,1.407 z m -5.69,0.742 c 0.6,-0.75 1.88,-0.742 3.22,-0.684 -0.93,0.391 -2.3,0.281 -3.22,0.684 z m -158.08,40.508 c 1.59,0.976 3.89,0.781 5.76,1.445 -1.61,0.84 -3.82,-0.481 -5.5,0.312 2.24,0.684 5.29,0.254 7.68,0.782 0.47,-0.02 -0.28,-0.625 0.52,-0.606 2.34,0.242 2.43,-0.234 4.19,-0.664 0.43,0.664 -0.55,1.191 0.29,1.543 0.21,-0.547 0.25,-1.309 1.25,-0.957 0.23,-0.762 -1.07,-0.371 -1.04,-0.977 2.4,0.118 4.67,0.821 6.14,2.344 0.52,0.059 1.06,0.11 1.58,0.156 0.2,-1.015 -1.13,0.274 -1.08,-0.761 1.25,-0.02 2.22,0.332 3.04,-0.567 0.79,0.196 1.19,0.547 1.62,-0.058 -0.79,-0.059 -1.59,-0.078 -1.78,-0.606 2.55,0.039 4.58,0.938 6.91,1.524 0.72,-0.059 1.77,-0.996 2.54,-0.196 -0.13,0.594 -1.13,0.125 -1.42,0.528 1.07,0.769 1.67,-1.133 3.25,-0.559 0.7,0.422 -0.97,0.754 0.14,0.871 0.28,-0.637 0.58,0.313 0.88,0.305 0.67,-0.266 -0.38,-1.008 0.54,-0.82 1.49,-0.168 0.91,0.671 1.52,0.796 1.05,-0.496 1.28,-0.671 1.76,-1.582 2.75,0.754 4,2.141 6.35,0.586 -0.63,-0.574 -1.5,0.246 -1.78,-0.593 0.52,-0.02 1,-0.125 1.19,-0.539 -2.05,0.031 -3.14,0.168 -5.19,-0.477 -0.43,0.234 -0.39,0.996 -1.02,0.984 -0.94,-1.472 -4.85,-1.043 -6.09,-0.769 -0.22,-0.235 0,-0.813 -0.62,-0.723 0.14,0.711 -0.74,0.235 -0.95,0.567 -1.71,-0.938 -4.97,0.527 -6.77,-0.872 -1.86,0.793 -2.91,0.051 -5.02,0.161 0.13,-0.325 0.71,-0.11 0.55,-0.813 -0.56,-0.078 -1.09,-0.137 -1.4,0.086 -0.62,0.168 1,0.481 0.14,0.891 -1.2,-0.364 -3.39,-0.313 -3.28,-1.414 -0.47,0.371 0.1,0.398 -0.13,1.074 -3.24,-0.063 -5.62,-0.383 -7.89,-0.793 0.29,0.058 0.67,0.019 0.68,0.281 -0.91,-0.027 -1.73,-1.16 -2.69,-0.476 0.97,0.046 -0.04,0.332 -0.28,0.39 -0.71,0.086 -0.19,-0.762 -1.09,-0.547 -0.62,0.567 -0.38,-0.207 -1.4,0.293 -3.18,-0.617 -5.99,0.293 -8.09,-1.047 -0.39,0.344 -1.36,0 -1.66,0.481 0.1,-0.449 -0.17,-0.449 -0.6,-0.508 -1.39,-0.176 -2.88,-0.129 -4.33,-0.234 -0.35,-0.059 -0.11,-0.567 -0.63,-0.508 -1.06,0.371 -1.87,-0.344 -2.97,0.117 -5.9,-1.055 -9.95,-1.465 -14.69,-1.387 -0.15,-0.339 -0.67,-0.39 -1.06,-0.547 -4.1,0.469 -8.17,-1.015 -12.02,-0.703 -1.08,-1.191 -3.32,-0.254 -5.35,-1.054 -0.07,0.312 -0.02,0.793 -0.33,0.82 -0.58,-0.078 -0.13,-0.938 -1.04,-0.762 -2.52,0.196 -6.04,-0.39 -7.68,-0.683 -0.54,-0.196 -4.84,0.324 -5.82,-0.918 -0.74,0.078 -1.44,0.222 -2.11,0.39 -2.59,-0.957 -5.64,-0.507 -7.32,-1.543 -0.03,0.379 -0.27,0.528 -0.54,0.586 0.2,-0.527 0.02,-0.781 -0.6,-0.722 -1.81,0.879 -2.96,-0.418 -4.7,-0.586 -0.57,-0.047 -1.41,0.293 -2.08,0.175 -1.28,-0.195 -2.21,-0.058 -3.19,-0.175 -0.02,0 -0.32,-0.43 -0.62,-0.508 -0.54,-0.156 -1.92,0.058 -2.42,-0.527 -1.15,0.468 -2.6,0.085 -3.37,-0.43 -2.73,-0.059 -6.21,-0.723 -9.44,-1.211 -3.84,-0.606 -7.79,-1.121 -11.09,-2.324 -4.71,0.273 -7.88,-1.543 -13.22,-1.785 0.09,-0.254 0.46,-0.442 0.08,-0.637 0.11,0.703 -0.77,0.183 -0.98,0.508 -4.75,-0.711 -9.59,-1.797 -14.06,-2.168 -0.94,-0.078 -1.66,-0.645 -2.63,-0.801 -0.74,-0.137 -1.56,0.019 -2.27,-0.117 -2.62,-0.489 -5.2,-1.282 -7.72,-1.758 -1.94,-0.352 -3.79,-0.254 -5.63,-0.586 -2.58,-0.469 -4.66,-1.621 -6.31,-2.023 -2.99,-0.711 -6.83,-0.418 -8.67,-1.5 15.51,1.707 31.97,5.398 47.96,7.527 13.99,1.848 28.43,5.41 42.67,6.66 10.24,0.918 20.86,2.617 30.82,3.523 18.87,1.719 36.75,2.844 55.2,3.86 0.35,0.097 0.12,0.488 -0.07,0.644 3.37,-0.996 7.17,-0.195 11.4,0.059 5.43,0.332 11.15,0.41 16.39,0.293 0.26,0.32 1.04,0.234 1.3,0.566 1.85,-0.586 4.73,0.02 7.08,0 0.01,-0.429 -0.25,-1.64 1.28,-1.406 0.02,0.938 1.85,0.684 3.55,0.762 1.43,-1.192 4.96,-1.289 6.89,-0.449 4.12,-1.114 9.01,0.136 13.49,-0.567 0.54,0.242 1.2,0.379 1.27,0.977 -0.13,-0.703 0.41,-0.645 0.76,-0.801 7.33,-0.254 15.13,0.176 21.47,-0.606 0.78,0.528 1.75,-0.117 2.69,0.418 3.22,-1.011 7.08,-0.027 10.34,-1.14 2.72,0.215 4.45,-0.227 6.56,0.273 5.59,-1.523 14.07,-1.023 19.05,-2.09 0.72,0.008 0.71,0.625 1.56,0.547 0.63,-0.234 1.15,-0.605 1.88,-0.742 4.91,-0.5 10.15,-0.652 14.66,-1.621 3.66,-0.43 6.69,-0.098 9.85,-1.113 0.51,0.039 1.04,0.058 1.58,0.097 0.55,-0.246 1.31,-0.273 1.86,-0.539 3.03,0.09 8.13,-1.277 12.57,-1.187 0.94,-0.82 2.98,-0.481 4.15,-1.059 0.45,0.031 0.9,0.051 1.35,0.078 4.26,-0.515 7.99,-1.558 12.59,-1.699 1.78,-0.855 4.18,-1.043 6.67,-1.16 0.85,-0.691 2.82,-0.195 3.44,-1.133 -10.54,1.043 -18.01,3.274 -29.03,3.621 -2.53,0.403 -6.1,1.282 -7.75,0.625 -0.35,1.086 -2.12,0.637 -3.46,0.657 -2.2,0.792 -4.98,0.898 -7.28,0.41 -0.57,0.656 -1.68,0.625 -2.8,1.132 -0.02,-0.273 -0.04,-0.527 -0.44,-0.468 -9.13,2.004 -20.74,1.426 -28.82,2.597 -0.63,-0.039 0.58,-0.546 -0.41,-0.461 -1.12,0.012 -2.32,0.723 -4.15,0.571 -0.36,-0.031 -0.17,0.594 -0.5,0.613 -5.04,-1.094 -11.1,0.012 -15.23,-0.059 -0.13,0.391 0.22,1.321 -0.54,1.036 -0.7,0.175 -0.36,-0.508 -0.38,-0.899 -6.55,0.508 -14.43,0 -21.23,0.918 0.59,0.84 2.2,-0.937 2.22,0.613 -1.39,-0.203 -2.41,0.598 -3.61,-0.3 0.01,-0.606 1.46,0.379 1.17,-0.547 -1.57,-0.235 -1.47,0.41 -2.96,-0.031 -0.19,0.128 0.03,0.976 -0.77,1.007 -0.52,-0.566 -1.27,-0.293 -2.25,-0.175 -0.07,-0.547 -0.37,-1.297 -1.06,-0.743 -0.6,1.582 1.11,0.078 1.02,1.172 -1.34,0.039 -1.77,0.098 -2.44,-0.644 -1.07,0.664 -2.55,-0.606 -3.9,0.312 -0.6,0.02 -0.1,-0.84 -0.84,-0.722 -0.45,0.293 -0.36,1.164 -1.22,0.988 0.21,-0.844 -1.23,-0.383 -1.78,-0.586 -1.89,0.262 -3.56,0.75 -4.05,-0.578 0.54,1.601 -3.42,-0.227 -2.61,1.062 -0.88,-1.121 -2.36,0.071 -3.03,-1.558 0.32,0.34 0.71,0.222 0.74,-0.371 -1.46,-0.11 -1.19,0.476 -2.27,-0.207 -0.58,0.781 -1.64,0.988 -2.84,1.054 0.25,0.117 0.5,0.274 0.63,0.481 -0.75,0.34 -0.93,-0.129 -1.8,0.054 -0.42,-0.3 0.5,-1.101 -0.4,-0.691 -0.81,-0.039 0.41,0.762 -0.3,0.637 -0.35,-0.266 -1.02,0.379 -1.55,-0.364 -5.95,1.075 -11.92,-0.656 -17.21,-0.964 -0.79,-0.129 -0.91,0.554 -1.65,0.488 -0.07,-0.52 -1.53,-1.027 -1.75,-0.813 0.95,-0.007 -0.01,0.567 -0.27,0.625 0.08,-0.468 -0.79,-0.183 -1.09,-0.332 -0.41,-0.547 0.07,-0.234 0.28,-0.625 -1.27,-0.351 -1.53,-0.586 -2.03,-0.195 -0.68,0.52 -0.56,-0.762 -1.14,0.098 -1.23,-0.743 -2.91,-0.996 -4.51,-0.664 1.12,-0.071 1.51,0.429 1.48,1.242 -0.68,-0.442 -2.61,-0.442 -3.27,-1.418 -3.5,-0.156 -4.33,-0.117 -6.8,-0.242 -0.23,1.257 1.32,0.105 1.27,1.004 -2.93,0.769 -3.73,-1.707 -6.67,-1.563 -0.18,1.133 1.57,0.742 1.87,1.504 -4.1,-0.195 -6.58,-0.305 -10.39,-0.645 -0.47,-0.332 -0.82,-1.14 -1.33,-0.371 -0.52,-0.449 -0.53,-1.289 -1.42,-1.445 -0.68,1.094 1.47,1.063 0.72,1.602 -1.38,-0.45 -3.1,0.222 -3.58,-0.606 0.18,-0.293 0.89,0.059 0.97,-0.332 -2.58,-1.621 -4.7,-0.176 -6.49,-1.133 -0.74,-0.136 -0.56,0.782 -1.23,0.735 0.14,-0.696 -0.76,-0.586 -1.01,-0.981 -1.6,0.266 -3.76,-0.945 -5.9,-0.215 -1.16,-1.023 -3.17,-0.476 -4.47,-0.711 0.06,0.735 1.23,0.633 0.94,1.621 -1.3,0.235 -2.77,-0.566 -3.35,-0.585 -0.41,-0.02 -0.72,0.332 -1.18,0.293 -2.7,-0.215 -5.49,-0.43 -8.09,-0.918 -1.66,-0.313 -3.24,-1.473 -5,-1.875 -3.09,-0.711 -6.44,-0.254 -9.66,-1.133 -0.29,0.761 1.34,0.547 0.54,1.14 -0.76,-0.254 -1.11,-0.797 -1.99,-0.437 0.8,-0.762 -0.89,-0.938 -1.43,-1.27 -0.01,0.496 0.35,0.977 -0.37,1.043 -1.95,-0.847 -5.64,-0.133 -7.07,-1.726 -0.91,0.371 -1.44,0 -2.55,0.343 -0.41,-1.046 -1.2,-0.414 -1.77,-0.429 0.01,0 -0.34,-0.481 -0.39,-0.481 -0.4,-0.136 -0.58,0.243 -0.93,0.098 -0.51,-0.215 -0.43,-0.488 -0.84,-0.547 -0.57,-0.098 -1.61,-0.105 -1.63,0.234 -1.19,-0.722 -4.26,-1.23 -5.58,-0.695 -3.55,-0.984 -8.84,-2 -11.85,-1.719 -2.27,-1.316 -5.16,-1.226 -7.75,-1.668 -1.38,-0.214 -2.63,-0.644 -4.01,-0.734 -0.55,-0.008 -0.96,0.129 -1.41,0.246 -0.34,-0.32 -0.47,-0.801 -1.24,-0.82 -4.27,-0.742 -7.52,-0.402 -10.93,-1.68 -2.75,-0.156 -5.29,-0.754 -8.06,-1.094 -4.85,-0.617 -9.92,-2.871 -14.91,-2.304 0.03,-0.352 0.12,-0.742 -0.36,-0.723 -4.1,0.652 -6.33,-2.156 -8.95,-1.055 -0.14,-0.468 -0.44,-0.832 -1.25,-0.832 -0.68,0.129 -1.64,-0.066 -2.1,0.356 0,-0.578 -0.6,-0.715 -0.98,-1.02 -1.74,-0.554 -6.11,-0.672 -7.33,-1.297 -1.64,-0.839 -4.94,-1.718 -7.02,-1.699 -0.38,-0.371 -0.91,-0.637 -1.47,-0.871 -3.71,-0.691 -8.26,-1.219 -12.11,-2.703 -4,-0.164 -6.17,-0.488 -9.03,-1.848 -4.01,-0.418 -5.9,-1.355 -9.07,-1.629 -3.52,-1.582 -7.59,-1.699 -10.42,-3.203 -0.65,0.157 -1.56,-0.008 -2.47,-0.183 -5.68,-1.946 -11.18,-3.723 -17.58,-5.071 -4.44,-1.98 -9.26,-2.578 -14.49,-4.421 -7.95,-3.333 -14.57,-5.442 -23.6,-8.071 -0.5,-0.406 -0.84,-0.926 -1.6,-1.16 -0.5,-0.187 -0.54,0.305 -1.15,0.02 -2.68,-2.786 -10.82,-2.825 -14.33,-6.094 -3.92,-0.567 -6.97,-2.656 -11.5,-4.113 0.45,-0.047 0.42,-1.356 -0.11,-0.672 0.23,0.058 0.13,0.293 -0.25,0.156 -0.3,-1.387 -3.89,-1.414 -3.84,-2.461 -0.69,0.137 -2.69,-0.449 -2.69,-1.387 13.34,4.336 25.62,9.324 39.32,13.34 -1.12,0.359 0.61,0.418 0.73,0.996 0.28,-0.156 0.21,-0.781 0.79,-0.527 11.19,4.023 22.95,7.031 34.38,10.058 4.42,1.172 8.83,2.286 12.98,3.907 7.37,1.582 14.28,3.347 22.77,5.39 0.38,0.059 0.62,-0.254 1.41,-0.234 3.2,1.453 6.91,1.594 10.3,2.48 0.49,0.125 1,0.547 1.49,0.664 2.58,0.547 5.46,0.625 7.96,1.426 0.85,0.274 1.49,0.801 2.35,1.016 1.4,0.32 3,-0.078 4.5,0.234 0.61,0.117 1.08,0.567 1.73,0.696 1.25,0.222 2.58,0.015 3.82,0.339 2.12,0.547 4.11,1.817 6.32,1.797 3.82,-0.593 7.99,1.817 11.38,1.426 5.98,2.129 12.29,1.785 18.35,3.652 3.38,0.098 7.81,0.711 12.08,1.426 4.96,0.821 10.24,1.563 14.16,2.969 1.54,-0.43 3.5,0.508 4.88,0.84 0.65,0.156 0.75,-0.391 1.39,-0.254 13.79,1.621 27.75,3.672 44.18,4.98 2.13,0.176 4.27,0.332 6.44,1.172 1.3,-0.664 3.49,-0.176 4.74,0.332 0.69,0.098 1.11,-0.136 1.62,-0.254 1.14,0.938 4.96,1.145 6.28,0.703 14.35,0.958 29.64,1.915 44.27,2.5 0.17,-0.566 2.15,-1.171 1.29,-1.386 -0.7,-0.266 -0.38,0.683 -0.98,0.554 -3.73,-0.984 -6.92,-0.664 -10.08,-1.226 0.28,0.777 -2.46,1.043 -2.71,-0.07 4.95,-0.379 10.83,0.058 15.13,0.664 -0.75,-0.137 0.92,1.289 -0.61,1.464 10.44,0.379 21.29,0.977 30.62,0.508 1.71,0.789 4.68,-0.476 6.05,0.762 0.21,-0.41 0.68,-0.508 1.21,-0.547 12.4,0.137 23.44,-0.449 35.91,-0.652 15.77,-1.156 31.22,-2.453 46.77,-3.496 14.97,-2.532 30.51,-3.469 45.22,-6.106 1.58,-0.293 3.6,-0.469 4.81,-0.82 3.05,-0.867 7.92,-1.133 10.28,-1.836 1.6,-0.488 3.41,-0.43 5.01,-0.605 1.83,-0.848 3.18,-0.782 5.49,-1.036 0.39,-0.175 0.67,-0.488 1.18,-0.593 0.28,0.086 0.39,0.32 0.88,0.261 1.04,-0.715 2.63,-0.832 4.34,-0.879 1.66,-0.82 4.2,-0.703 5.74,-1.679 0.68,-0.098 1.69,0.136 1.83,-0.567 -1.44,-0.722 -2.91,0.645 -5.67,0.391 -0.43,0.461 -1.03,0.73 -2.06,0.547 -0.04,1.387 -2.06,1.289 -3.19,0.508 -0.72,0.156 -1.14,0.605 -1.85,0.769 -6.84,0.617 -12.05,1.899 -18.01,2.766 -0.72,0.117 -0.41,-0.613 -1.09,-0.488 -1.66,0.976 -2.81,1.101 -5.29,1.23 -0.31,0.02 -0.61,-0.918 -0.88,-0.273 0.27,0.046 0.52,0.097 0.44,0.468 -1.52,0.157 -1.71,0.664 -3.43,0.235 -1.77,1.015 -5.43,0.547 -7.77,1.504 -0.83,-0.039 -1.66,-0.086 -2.49,-0.137 -2.68,0.93 -5.65,0.625 -8.46,1.445 -0.15,-0.461 -1.05,-1.152 -1.34,-0.305 0.33,0.071 0.84,-0.015 0.88,0.278 -1.93,0.387 -4.35,-0.695 -5.26,0.972 -1.36,-0.632 -3.08,0.149 -4.76,-0.085 0.73,0.878 -1.22,0.793 -1.4,0.566 -0.11,-0.598 1.06,0.215 0.94,-0.371 -1.2,0.117 -1.7,-0.156 -2.49,0.051 0.64,0.222 -0.19,0.691 -0.08,1.082 -1.2,-0.535 -2.8,-0.664 -4.28,-0.274 -4.56,-0.605 -8.75,0.989 -14.05,0.352 -2.51,0.871 -4.92,0.41 -7.55,0.769 -1.12,0.149 -2.39,0.715 -3.62,-0.047 0.95,-0.644 2.53,0.313 3.65,-0.39 0.66,0.351 0.83,-0.039 1.81,0.137 0.62,-0.45 0.79,-0.489 1.42,-0.547 0.76,0.215 1.68,-0.157 2.72,-0.254 0.92,-0.078 2.7,0.332 2.54,-0.469 -4.97,0.176 -7.37,1.074 -12.53,0.84 -0.49,0.176 -1.04,0.273 -1.41,0.555 -0.82,-0.426 -2.86,-0.438 -3.21,0.421 1.12,-0.156 1.88,-0.656 2.93,0.215 -1.04,0.059 -2.08,0.176 -3.17,0.196 -1.35,-1.661 -3.5,-0.098 -5.86,-0.43 -0.42,0.984 1.33,-0.43 1.06,0.723 -1.12,0.007 -2.12,0.136 -3.18,0.207 0.07,-0.864 1.39,-0.317 1.87,-0.735 -1.53,-0.117 -4.94,-0.597 -5.74,0.867 -2.48,-1.011 -5.58,0.246 -8.57,-0.457 -10.93,1.231 -21.44,0.137 -31.74,0.196 -0.08,-0.332 0.92,-0.45 0.26,-0.625 -0.21,0.351 -0.54,0.625 -0.96,0.781 -26.3,-0.508 -55.6,-1.524 -79.05,-3.406 -0.42,-0.063 -0.08,-0.727 -0.58,-0.715 -1.03,1.433 -3.7,-0.52 -5.05,0.312 -1.99,-0.82 -3.09,0 -5.34,-0.808 -0.72,0.144 -1.49,0.164 -1.9,0.672 -1.41,-1.387 -3.83,-0.098 -5.27,-1.485 -0.25,0.371 -0.52,0.711 -1.2,0.528 -0.99,-1.485 -6.28,-0.188 -4.81,-1.414 -9.43,-0.833 -14.62,-1.204 -22.71,-3.567 -0.81,-0.41 -0.17,0.957 -0.99,0.547 -2.67,-1.172 -8.98,-1.484 -13.56,-2.109 -2.48,-0.332 -5.91,-0.887 -8.18,-1.7 -0.54,-0.089 -0.73,0.254 -1.17,0.293 -0.01,-0.527 -1.71,-0.105 -0.81,-0.754 -5.36,0.676 -10.9,-1.543 -15.62,-2.031 -5.06,-0.523 -9.62,-1.472 -14.36,-2.801 1.86,0.372 3.98,0.664 5.55,0.977 4.71,0.918 9.68,1.094 14.48,1.914 8.56,1.465 17.61,2.703 26.28,3.77 5.96,0.761 12.95,0.683 16.31,1.992 0.37,-0.828 0.92,0.019 1.83,-0.227 0.77,-0.164 0.08,0.727 0.84,0.539 0.03,-0.383 0.3,-0.468 0.74,-0.351 3.1,0.664 6.36,0.215 8,1.164 6.99,0.183 16.5,0.957 25.2,1.961 2.67,-0.196 5.29,0.031 8.34,0.254 7.28,0.539 15.86,0.976 24.35,1.445 1.47,0.078 3.12,0.137 4.07,0.184 7.4,0.39 14.3,0.539 20.76,0.695 30.79,0.762 61.67,-0.442 90.83,-3.195 17.02,-1.59 33.44,-4.2 49.66,-5.958 2.45,-0.984 6.36,-1.55 9.12,-1.433 4.27,-1.66 10.06,-1.738 14.62,-3.137 10.08,-1.785 19.38,-3.379 28.73,-6.226 7.37,-0.93 13.52,-3.164 20.66,-4.36 0.53,-0.293 1.07,-0.547 1.61,-0.801 24.39,-6.113 47.42,-14.675 69.89,-23.562 4.95,-3.145 12.18,-6.602 16.75,-9.883 -6.11,3.574 -13.68,5.684 -19.42,9.61 -1.24,-0.047 -1.57,0.8 -2.93,0.585 -2.57,2.129 -6.06,3.028 -9.29,4.344 -3.31,1.36 -6.83,2.317 -10.41,3.215 -1.82,1.113 -4,1.863 -6.56,2.207 -0.78,0.715 -2.07,0.867 -2.99,1.426 -1.93,0.098 -3.14,0.937 -4.54,1.601 -6.47,1.993 -13.78,3.106 -21.03,4.317 -0.89,-0.559 -1.08,-0.52 -2.2,-0.735 -0.32,0.793 -1.11,0.442 -1.58,0.598 -0.53,-0.09 -0.29,0.613 -0.72,0.625 -6.76,1.602 -12.62,2.969 -18.64,4.688 -5.12,0.761 -9.83,2.832 -14.75,3.046 -0.48,0.176 -0.71,0.633 -1.38,0.586 -4.47,0.555 -9.61,2.266 -14.98,2.547 -2.79,1.223 -6.31,0.625 -8.68,1.946 0,-1.399 -0.91,-0.743 -1.71,-1.387 -0.33,0.527 0.58,0.918 -0.06,1.094 -3.02,0.351 -5.97,1.093 -9.81,1.629 -0.06,-0.411 0.4,-1.278 -0.36,-1.09 -0.77,0.164 -1.27,0.625 -1.85,0.972 0.72,0.364 1.98,-0.496 1.77,0.305 -1.29,-0.352 -2.62,1.074 -3.39,-0.176 0.46,0.215 1.28,-0.273 0.72,-0.39 -0.01,0.214 -0.4,0.246 -0.46,-0.02 -0.22,-0.019 -0.25,-0.195 -0.43,-0.254 -0.43,0.281 0.29,1.074 -0.31,1.492 -0.65,-0.691 -2.4,0.903 -2.7,-0.144 0.34,-0.02 0.83,0.129 0.91,-0.156 -0.26,-0.325 -0.95,-0.274 -1.54,-0.313 -0.35,0.692 0.7,0.215 0.38,0.899 -6.48,0.671 -12.11,1.738 -17.47,1.789 -0.54,0.339 -1.21,0.535 -1.87,0.75 -1.13,-0.274 -1.91,-0.274 -3.56,-0.43 -0.08,0.332 -0.47,1.25 -1.18,0.566 0.28,-0.007 0.65,0.078 0.69,-0.168 -1.17,-0.418 -1.56,0.032 -1.37,0.559 -1.51,0.059 -2.51,0.664 -3.71,1.074 -0.59,0.02 -0.11,-0.859 -0.84,-0.715 -0.51,0.442 -0.92,0.422 -1.35,-0.086 0.15,0.704 -0.74,0.254 -0.94,0.606 -4.02,0.586 -8.79,0.488 -11.64,1.601 -2.58,1.036 -5.49,0.52 -8.38,0.723 -2.86,0.203 -6.49,1.191 -9.32,0.637 -2.7,1.094 -5.24,0.547 -8.18,0.711 -2.19,0.105 -4.13,0.605 -5.71,0.644 -1,0.032 -1.92,-0.273 -2.94,-0.215 -2.34,0.125 -5.34,0.508 -7.49,0.711 -0.73,0.071 -1.56,0.039 -2.27,0.039 -5.23,-0.046 -9.2,0.442 -14.05,0.383 -0.35,-0.058 -0.76,-0.039 -0.63,-0.488 -0.86,0.019 -0.96,0.918 -1.84,0.273 -0.1,-0.593 0.5,-0.39 0.54,-0.82 -0.68,0.215 -1.01,0.996 -2.15,1.121 -1.09,0.129 -2.1,-0.23 -2.42,-0.633 -0.46,0.176 -0.46,0.918 -1.2,0.762 -1.72,-0.684 -3.13,0.684 -4,-0.781 -0.3,1.191 -1.16,0.398 -2.12,0.918 -0.04,-0.684 0.65,-0.528 0.78,-1.035 -0.78,-0.098 -0.8,0.664 -1.44,0.742 -6.74,-0.176 -13.98,0.207 -20.07,-0.488 -15.17,0.007 -32.41,-1.231 -46.41,-1.75 -2.03,-0.067 -4.55,-0.497 -6.25,-0.868 5.7,-0.781 14.03,0.196 20.35,0.157 0.86,-0.149 0.57,0.593 1.29,0.566 0.92,-0.547 3.4,-0.957 4.32,0 0,-0.789 1.21,-0.176 1.61,-0.496 3.14,0.242 5.54,0.242 8.14,0.144 0.71,-0.175 0.5,0.379 0.83,0.516 0.23,-0.301 0.41,-0.652 0.99,-0.562 0.4,0.093 -0.18,0.339 0.16,0.449 0.97,-0.781 3.49,0.23 4.57,-0.422 3.19,0.867 7.16,0.051 10.14,0.293 0.5,0.039 0.31,0.41 0.85,0.508 -0.04,-0.008 0.26,-0.469 0.72,-0.371 0.27,0.058 0.14,0.273 0.44,0.254 -0.03,0 3.53,-0.801 4.04,0.156 0.01,-0.781 1.23,-0.176 1.64,-0.496 3.42,0.293 6.6,-0.09 8.77,0.34 2.35,-0.879 11.34,0.246 14.73,-0.458 1.13,-0.238 1.93,0.086 2.73,0.008 -0.11,0.301 -0.4,0.332 -0.52,0.606 0.93,0.039 0.74,-1.211 2.09,-0.696 -0.01,0.305 -0.14,0.461 -0.27,0.637 0.71,0.098 0.44,-0.918 1.2,-0.769 13.28,-0.051 25.42,-1.164 39,-1.977 0.02,0.324 -0.15,0.793 0.15,0.891 0.3,-0.528 1.24,-0.34 2.05,-0.293 0.4,-0.11 0.42,-0.625 0.74,-0.821 13.87,-1.562 25.65,-2.656 38.18,-4.16 0.77,-0.222 0.14,0.703 0.88,0.481 0.75,-0.793 2.95,-1.242 4.11,-0.832 -0.02,0.273 -0.4,0.175 -0.47,0.398 1.52,0.578 1.14,-0.906 1.87,-1.187 0.98,0.027 2.36,-0.383 3.13,0.183 0.06,-0.32 0.04,-0.742 0.52,-0.605 1.45,-0.449 2.24,0.652 3.35,0.398 -0.08,-0.789 0.8,-0.855 1.86,-0.965 0.2,0.559 -1.11,0.774 -0.05,0.86 1.31,-0.664 2.78,-1.856 4.78,-1.028 0.35,-0.242 0.36,-0.847 0.96,-0.808 3.52,-0.188 6.3,-1.367 9.74,-0.977 0.42,-0.019 0.2,-0.715 0.7,-0.625 1.33,-0.078 2.69,-0.449 3.88,-0.664 1.15,-0.207 2.57,-0.195 3.21,-0.906 -0.42,0.144 -1,-0.402 -2.46,-0.344 -0.77,0.391 0.76,0.528 -0.05,0.86 -1.99,-1.043 -3.66,0.117 -5.22,0.8 -1.2,-1.867 -4.55,0.899 -5.82,-0.312 0.34,0 0.75,0.078 0.68,-0.391 -0.82,0.098 -1.87,-0.027 -2.48,0.293 0.39,0.078 1.11,-0.156 0.88,0.481 -1.61,0.711 -4.18,0.418 -5.73,1.199 -0.53,-0.027 -1.03,-0.059 -1.56,-0.086 -0.6,0.262 -1.49,0.203 -2.06,0.535 -1.06,-0.586 -3.12,1.016 -3.83,-0.012 3.75,-0.308 5.37,-1.863 8.88,-1.433 0.36,0.019 0.15,-0.606 0.48,-0.625 0.71,0.871 0.24,0.066 0.92,-0.164 0.57,-0.207 1.01,0.711 1.34,0.066 -0.95,0 0.02,-0.32 0.05,-0.644 2.2,0.539 5.14,-1.055 7.43,-0.457 0.92,-1.36 2.69,-0.442 4.13,-1.301 -0.05,0.273 -0.38,0.429 0.2,0.449 1.36,-0.703 2.45,0.691 3.34,0.391 0.22,-0.723 -0.89,-0.325 -0.58,-1.114 1.8,0.371 4.48,-1.406 6.75,-0.527 -0.15,-0.703 0.39,-0.652 0.74,-0.82 3.59,-0.977 7.59,-1.27 11.34,-2.051 1.78,-0.371 3.41,-1.231 5.22,-1.27 1.21,-0.039 2.51,0.887 3.61,-0.058 -0.51,-0.156 -1.65,0.195 -1.81,-0.293 2.49,-1.028 4.83,-0.488 7.25,-0.774 0.73,-0.398 -0.62,-0.457 0.03,-0.652 0.54,0.098 0.83,0.391 1.55,0.293 3.16,-1.16 8.38,-1.426 11.6,-3.203 0.54,0.09 0.84,0.371 1.56,0.273 0.62,-0.175 -0.39,-0.808 0.49,-0.84 0.29,0.801 2.06,-0.136 2.91,0.547 0.43,-1.66 3.21,-1.289 3.68,-2.246 1.56,0.547 2.48,-0.594 4.05,-0.293 0.19,-1.047 -1.48,0.379 -1.76,-0.488 0.84,-0.527 2.5,-0.234 3.16,-0.977 -1.93,-0.136 -2.87,0.782 -4.74,0.704 -0.38,0.117 -0.38,0.632 -0.69,0.839 -2.15,-0.007 -3.64,0.899 -6.33,0.84 -0.34,0.235 -0.66,0.508 -0.93,0.828 -2.43,-0.496 -5.62,1.34 -7.91,0.981 1.15,-0.852 2.75,-0.422 3.45,-1.367 6.38,-1.047 11.64,-3.313 17.91,-4.524 4.1,-1.472 8.6,-3.457 13.82,-4.07 4.99,-1.633 9.57,-3.676 15.15,-4.731 1.84,-0.964 3.72,-1.824 6.11,-2.214 2.39,-1.497 5.26,-2.344 7.94,-3.262 8.51,-2.949 16.57,-6.399 24.11,-10.086 0.28,-0.168 0.61,-0.266 1.14,-0.188 0.68,-0.644 1.51,-1.113 2.27,-1.687 -3.56,0.711 -6.42,2.059 -9.66,3.269 -1.28,0.489 -2.05,1.075 -2.94,1.465 -0.24,0.11 -0.63,-0.117 -0.89,-0.019 -0.94,0.344 -1.7,1.211 -2.73,1.672 -0.95,0.449 -2.16,0.984 -3.16,1.226 -3.24,0.832 -5.86,1.606 -9.19,1.946 -5.95,2.148 -12.96,5.378 -18.52,6.417 1.35,-1.339 3.88,-1.496 5.43,-2.648 -1.26,-0.117 -1.95,0.359 -2.92,0.566 -0.66,0 -1.6,-0.847 -1.79,-0.046 0.34,0.125 1.17,-0.227 1.13,0.242 -1.49,0.625 -3.26,0.976 -4.34,2.043 0.73,0.261 1.4,-0.617 1.79,0.047 -1.37,1.25 -4.05,1.191 -5.45,2.421 -0.69,-0.351 -0.99,-0.097 -1.77,-0.046 -3.46,1.394 -7.68,2.586 -11.12,3.523 -0.69,0.195 -1.55,0.176 -2.25,0.352 -1.49,0.371 -2.16,0.937 -3.42,1.386 -2.19,0.782 -4.53,0.965 -6.76,1.485 -0.8,0.957 -1.8,0.429 -2.74,0.976 -0.29,0.86 0.29,0.965 0.6,1.328 -1.33,0.254 -3.07,1.289 -4.3,0.911 0.09,-0.422 -0.29,-0.442 -0.41,-0.665 1.06,-0.226 2.7,-0.05 3.62,-0.941 -1.11,0.031 -1.85,0.461 -3.15,0.316 -0.75,0.711 -1.04,0.887 -2.07,1.004 0.23,0.489 1.6,-0.039 1.77,0.489 -0.59,1.347 -4.08,0.273 -2.88,-0.332 -1.01,-0.215 -1.37,0.234 -2.26,0.129 -0.9,1.16 -3.51,0.527 -4.56,1.531 1.33,-0.059 2.04,-0.274 2.94,-0.293 -0.23,-0.012 -0.56,-0.137 -0.2,-0.235 1.01,0.293 1.66,-0.703 2.7,-0.753 0.76,0.585 1.59,0.421 1.98,0.949 -1.83,-0.215 -3.85,1.64 -5.64,0.859 -0.38,0.969 -1.37,0.488 -2.31,1.192 -1.71,-0.04 -3.46,0.664 -5.21,1.074 -1.78,0.41 -4.86,1.347 -5.63,0.832 -0.43,0.254 -0.96,0.379 -1.19,0.808 -4.57,-0.222 -9.61,2.188 -14.02,2.149 -1.07,0.547 -2.21,0.996 -3.89,0.898 -0.32,0.41 -0.81,0.645 -1.38,0.789 -0.65,0.149 -0.56,-0.32 -1.11,-0.261 -1.61,0.754 -4.45,0.808 -6.58,0.957 -0.56,0.039 -1.25,0.879 -1.55,-0.078 2.78,-0.364 5.45,-0.86 7.94,-1.543 3.35,0.273 5.93,-1.387 8.61,-1.094 0.98,-0.918 2.67,-1.082 4.53,-1.074 0.82,-0.657 1.95,-0.977 3.43,-0.918 2.23,-0.84 5.29,-1.946 7.94,-1.59 -0.01,-0.754 1,-0.442 1.17,-1.028 -6.83,0.918 -13.51,3.555 -21.06,3.77 -0.39,0.437 -0.83,0.781 -1.42,1.008 -1.04,-0.188 -1.45,0.281 -2.27,0.32 0.5,-0.547 -1.7,-0.351 -0.67,0.176 -4.65,0.019 -7.94,0.945 -12.9,1.496 -0.48,0.242 -0.69,0.777 -1.39,0.789 -2.46,0.039 -4.54,0.469 -6.58,0.938 -0.34,-0.04 -0.14,-0.555 -0.63,-0.469 -1.79,0.82 -4.53,0.605 -6.17,1.594 3.73,-0.403 8.64,-0.61 11.49,-0.657 -5.05,1.739 -9.88,1.504 -15.22,2.61 -0.54,-0.032 -0.65,-0.422 -1.35,-0.293 -0.9,1.082 -3.65,1.382 -5.02,1.199 0.03,-0.281 0.41,-0.164 0.48,-0.391 -1.4,0.235 -2.88,0.391 -3.9,1.055 -5.8,-0.352 -11.04,1.648 -17.44,1.484 -3.26,1.2 -7.36,0.508 -10.92,1.653 2.86,0.496 6.74,-0.168 9.93,-0.637 1.86,-0.156 3.87,-0.02 5.67,-0.273 2.88,-0.43 5.65,-1.192 8.43,-1.426 0.36,-0.02 0.72,0.293 1.1,0.293 1.07,0 2.25,-0.547 3.2,-0.664 0.42,-0.047 0.9,0.117 1.34,0.078 2.3,-0.176 4.73,-0.977 6.84,-1.309 1.05,-0.176 1.47,-0.461 2.06,-0.527 0.35,-0.059 0.75,0.293 1.11,0.273 1.4,-0.097 2.95,-1.113 4.3,-0.39 0.57,-0.157 0.91,-0.547 1.62,-0.567 10.25,-0.937 21.49,-3.535 32.65,-4.98 3.19,-0.813 7.28,-1.856 10.43,-1.906 -4.43,1.066 -8.49,2.414 -13.38,2.621 -3.55,2.129 -7.39,1.941 -11.84,2.429 -10.28,1.848 -19.98,3.711 -29.99,4.805 -2.27,1.57 -7.07,0.937 -9.35,1.809 -0.79,-0.832 -0.99,0.281 -2.01,-0.344 0.16,0.715 -0.76,0.254 -0.96,0.586 -1.65,-0.203 -2.8,0.594 -4.26,-0.047 -2.18,1.187 -4.99,0.691 -6.63,1.504 -0.09,-0.285 -0.06,-0.578 -1.11,-0.5 -0.79,0.012 0.75,0.625 -0.04,0.644 -1.23,0.125 -3.35,0.535 -3.59,-0.246 -0.38,-0.008 -0.18,0.598 -0.51,0.617 -1.2,-0.222 -2.49,0.098 -3.41,0.633 -1.48,-1.062 -2.29,0.422 -3.82,-0.261 -0.34,0.41 -0.83,0.625 -1.4,0.761 -0.1,-1.347 -2.27,0.02 -2.91,-0.41 0.21,0.012 0.25,0.399 -0.03,0.43 -5.22,0.918 -8.93,0.422 -13.63,1.172 -0.8,-0.547 -0.95,-0.188 -1.34,-0.098 -0.27,0.059 -0.3,-0.313 -0.66,-0.266 -0.34,0.051 -1.74,0.727 -2.09,0.715 -0.35,-0.027 0.07,-0.527 -0.19,-0.449 -0.35,0.098 -0.57,1.016 -0.95,0.566 -0.42,-0.312 -1.27,-0.3 -1.74,-0.554 -1.86,1.414 -4.92,0.574 -6.56,0.144 0.15,-0.293 0.87,0.039 0.93,-0.371 -0.92,-0.012 -1.63,0.227 -2.1,0.723 -1.58,-0.977 -5.22,0.527 -7.21,-0.149 -1.11,0.215 -3.36,0.434 -5.22,0.442 -1,0 -2.16,0.168 -2.68,-0.43 -1.09,0.774 -1.72,0.606 -3.16,0.176 -1.51,0.586 -3.9,0.098 -6.33,0.105 -1.81,0.024 -3.94,0.664 -5.16,-0.437 3.5,-0.352 5.07,0.176 7.9,0.019 0.57,-0.351 1.17,-0.703 2.31,-0.449 0.09,-1.223 2.59,-0.73 3.41,-0.371 -0.14,-0.703 0.74,-0.242 0.95,-0.574 1.54,0.484 2.78,-0.051 4.94,0.183 0.44,-0.8 -0.95,-0.136 -0.83,-0.711 8.09,-0.187 16.19,-1.613 24.02,-1.378 3.21,-0.567 6.05,-1.211 8.66,-1.309 0.63,-0.02 1.46,0.203 2.01,0.137 0.02,0 0.41,-0.371 0.48,-0.391 1.63,-0.41 4.44,0.012 5.48,-0.684 0.52,0.02 0.62,0.411 1.32,0.301 0.97,-0.586 3.02,-1.004 4.08,-0.144 1.5,-0.449 2.91,-0.567 4.27,-0.137 0.35,-0.234 0.41,-0.801 0.76,-1.035 -0.07,1.164 1.26,-0.117 2.43,0.586 0.19,-1.16 -0.95,0.012 -1.05,-0.938 1.28,-0.547 2.15,0.586 3.37,0.235 -0.16,-0.364 -1.11,-0.032 -0.87,-0.711 6.75,-0.793 12.32,-1.723 18.43,-2.922 3.36,-0.059 5.15,-1.133 7.52,-1.27 4,0.868 6.12,-1.535 9.76,-1.386 1.21,-0.539 3.06,-1.289 4.53,-0.821 0.03,-0.754 1.21,-0.254 1.4,-0.781 2.74,-0.312 4.13,-0.664 6.37,-1.387 1.88,0.196 3.6,-0.879 5.7,-1.211 0.4,-0.058 0.7,0.274 0.88,0.254 1.73,-0.136 3.36,-1.074 5.02,-1.465 3.29,-0.046 6.57,-1.945 9.23,-0.625 -0.19,0.547 -1.64,-0.234 -1.61,0.579 3.89,0.32 7.97,-1.797 11.33,-2.063 0.13,-1.426 3.41,-0.969 4.37,-2.187 -0.08,-0.528 -1.52,0.605 -1.79,-0.079 3.86,-2.363 11.47,-0.312 14.99,-3.457 0.36,0.555 0.27,0.235 1.09,0.254 4.58,-0.683 8.07,-2.507 12.91,-2.949 0.62,-2.285 3.63,-2.07 5.71,-2.812 0.84,1.14 2.59,0.5 3.59,-0.079 -0.73,-0.285 -1.4,0.594 -1.79,-0.078 0.82,-1.23 3.62,-1.621 4.98,-1.543 -0.92,0.606 -2.1,0.957 -2.97,1.621 1.67,-0.136 2.66,-0.996 4.52,-0.925 0.33,-0.317 0.41,-0.891 0.92,-1.047 1.16,-0.906 5.49,-1.074 4.56,-2.442 -0.46,0.418 -0.44,0.176 -0.01,0.645 -3.36,-0.508 -6.51,2.168 -9.68,1.836 -0.17,-0.879 -0.11,-1.055 0.52,-1.504 -5.46,1.594 -11.83,3.105 -16.29,4.375 -1.05,0.02 -1.12,0.195 -2.03,-0.078 -3.32,0.976 -6.52,2.012 -10.19,2.605 -4.93,1.953 -11.58,1.34 -16.97,3.567 0.14,-0.879 -0.49,0.066 -1.12,-0.266 -0.45,0.285 -0.82,0.637 -1.18,1.027 -1.25,-0.781 -2.62,0.411 -3.79,-0.195 -4.82,1.465 -11.01,1.477 -15.43,3.34 -0.44,-0.156 -2.1,-0.645 -2.27,0.527 7.87,-1.035 13.31,-1.472 20.35,-3.293 0.56,-0.066 0.48,0.403 1.11,0.266 0.82,-0.918 2.23,-1.105 3.62,-0.488 -1.51,0.398 -2.86,1.179 -4.08,0.683 -3.49,1.856 -8.14,0.547 -11.81,2.664 1.63,-0.261 3.86,-1.043 5.64,-0.371 -2.22,0.324 -4.87,0.989 -6.6,1.399 -1.97,0.5 -5.02,0.449 -6.54,0.957 -0.46,0.156 -0.79,0.488 -1.17,0.605 -2.13,0.547 -3.96,-0.332 -5.88,0.75 0.11,0.305 0.87,0.071 0.87,0.481 -3.31,0.8 -7.49,1.203 -11.8,1.941 0.01,-0.32 0.98,-0.633 0.05,-0.652 -0.84,0.254 -1.41,0.09 -1.4,0.793 -1.6,-0.149 -3.62,1.023 -4.01,-0.461 -2.77,0.644 -5.39,0.761 -7.74,1.484 0.66,0.117 1.74,-0.129 1.76,0.535 -0.7,0.559 -2.71,-0.32 -3.4,0.227 0.49,0 0.71,0.234 0.64,0.703 -1.17,-0.496 -1.8,0.801 -2.28,0.293 0.03,-0.293 0.42,-0.188 0.47,-0.398 -0.96,-0.161 -0.76,0.625 -0.95,0.808 -0.58,0.125 -2.2,0.332 -2.67,-0.176 1.56,0.098 2.36,-0.644 3.03,-1.543 -0.79,0.235 -1.93,0.071 -2.52,0.489 0.71,0.019 1.24,0.175 1.55,0.539 -1.31,-0.239 -1.91,0.41 -2.93,0.027 -0.4,0.742 0.75,0.176 0.62,0.684 -1.73,1.347 -4.51,0.41 -6.63,1.523 -1.91,-0.644 -4.41,0.305 -7.01,0.625 -7.75,0.969 -16.22,1.953 -23.57,2.051 -7.03,0.781 -15.35,1.875 -22.38,1.125 -3.25,0.437 -7.42,-0.891 -11.31,0.398 1.83,0.274 4.18,0.157 5.76,1.114 -1.41,-0.313 -3.86,0.753 -4.03,-0.325 -0.21,0.293 -0.4,0.657 -0.93,0.571 -2.09,-0.024 -4.16,0.183 -6.58,0.32 -0.78,0.039 -1.26,-0.188 -1.77,-0.352 0.13,0.782 -0.99,0.137 -1.19,0.539 -7.14,-0.148 -14.7,0.282 -21.65,0.086 -3.72,-0.117 -6.22,0.059 -8.99,-0.39 -3.84,-0.606 -7.73,0.566 -10.45,-1.406 1.07,-1.426 3.51,0.261 5.04,-0.625 -1.41,0 -2.43,-0.313 -3.08,-0.918 1.79,-1.407 3.17,0.703 5.36,0.5 0.06,1.113 -1.43,0.554 -1.66,0.711 1.8,1.093 1.86,-1.719 3.89,-0.508 -0.19,0.488 -0.79,0.508 -0.98,0.996 1.97,-0.696 2.9,-1.582 2.51,-2.598 1.31,0.149 1.94,0.801 3.06,0.723 -0.25,0.996 -1.1,0.066 -1.61,0.5 0.85,0.828 2.08,0.125 3.23,1.375 0.58,-1.309 -1.47,-0.52 -1.18,-1.621 0.73,-0.157 0.69,0.461 1.38,-0.313 0.39,0.215 0.65,0.535 0.81,0.938 0.83,-0.457 1.49,-0.157 2.34,-0.867 2.73,0.085 3.61,1.472 5.74,1.16 -0.2,0.39 -0.66,0.097 -0.27,0.632 1.02,-0.164 3.02,0.774 3.38,-0.144 -1.8,-0.586 -3.85,-0.41 -5.02,-1.738 2.04,-0.977 3.96,0.136 5.8,0.722 0.56,0.625 0.25,1.582 1.69,1.243 -1.39,-0.422 0.79,-0.891 0.12,-1.301 -0.25,-0.059 -0.33,-0.274 -0.41,-0.469 -0.98,0.137 -1.59,0.496 -2.66,-0.449 0.45,-0.274 1.49,0.129 1.83,-0.274 -0.25,-0.078 -0.49,-0.398 -0.18,-0.449 4.55,-0.449 11.27,0.281 16.02,-0.371 0.78,0.176 1.43,0.43 2.44,0.41 0.56,-0.305 1.33,-0.359 2.06,-0.469 4.01,0.989 8.01,-0.871 12.56,0.567 -0.12,-0.711 0.41,-0.645 0.75,-0.813 0.31,0.285 0.19,0.918 0.83,0.942 0.24,-0.688 -0.72,-0.356 -0.61,-0.93 0.49,-0.41 0.9,0.137 1.33,0.332 -1.85,-2.684 -5.62,-0.234 -8.71,-0.906 -0.02,0.379 -0.19,0.535 -0.5,0.613 -0.96,-0.527 -1.72,-0.027 -2.64,-0.644 -3.71,1.015 -7.75,-0.411 -10.87,0.625 -0.97,-0.547 -3.81,-0.039 -6.04,-0.508 -1.95,0.383 -3.92,-0.008 -6.94,-0.176 -1.11,0.82 -2.65,0.273 -4.16,0.937 -2.05,-1.25 -4.58,0.098 -6.65,-1.027 1.69,-0.242 2.19,-0.398 4.28,-0.047 0.46,-0.527 3.01,0.157 2.53,-0.644 -1.93,-0.254 -4.57,0.515 -6.93,-0.41 -10.47,0.488 -20.56,-0.411 -31.91,-0.625 -1.65,-1.153 -3.14,-0.938 -4.86,-0.911 0.54,0.286 1.49,0.286 1.71,0.813 -8.05,-0.586 -14.89,-0.879 -23.27,-1.524 -0.7,0.04 0.04,-1.074 -0.77,-0.949 -0.17,0.473 -1.23,-0.152 -1.21,0.532 0.4,0.171 1.01,-0.532 1.13,0.125 -2.22,0 -4.63,0.332 -6.27,-0.458 0.72,-0.304 2.02,0.165 2.33,-0.636 -0.14,-0.586 -0.49,0.547 -1.15,0.105 0,-1.004 -1.22,-0.332 -2.39,-0.691 -0.83,-0.086 -0.42,1.269 -1.46,0.937 -0.44,-0.82 0.51,0.243 0.34,-1.054 -0.57,0.449 -1.36,-0.496 -1.37,0.285 -1,0.469 0.6,0.562 0.31,1.121 -2.74,-0.762 -6.8,0 -9.33,-1.035 0.61,-0.274 1.4,0.422 1.85,-0.442 -0.69,-0.808 -1.68,-0.254 -2.9,-0.32 -1.53,-1.523 -4.15,-0.41 -6.62,-1.184 4.62,-0.593 8.69,0.872 11.92,0.247 -1.25,-0.149 -2.4,-0.286 -2.87,-0.528 2.44,-0.586 5.77,0.403 8.73,0.528 11.79,0.449 23.71,1.328 32.9,1.894 3.3,0.203 6.64,0.176 9.9,-0.098 -14.74,-0.429 -29.66,-1.543 -44.05,-2.597 -2.46,-0.176 -5.44,0.058 -7.12,-0.782 15.58,0.899 30.82,1.934 46.28,2.676 5.41,0.254 11.85,0.496 15.91,0.664 0.83,0.032 2.1,0.157 2.75,-0.39 -4.6,-0.918 -9.99,-0.735 -14.75,-0.977 -3.74,-0.195 -7.45,-0.664 -10.75,-0.41 -1.34,-0.391 -3.02,-0.469 -4.71,-0.266 -0.43,-0.125 -0.52,-0.515 -1.05,-0.535 -0.67,0.254 -1.72,0.071 -2.31,0.41 -0.4,-0.285 -1.03,-0.371 -1.5,-0.586 -1.5,0.801 -3.84,-0.546 -5.43,0.098 -15.39,-1.648 -29.6,-2.246 -47.43,-4.18 -1.73,-0.175 -2.61,-0.437 -4.18,-0.918 -0.11,-0.625 0.39,-0.527 0.36,-1.054 -0.9,-0.332 -2.08,-0.489 -3.29,-0.606 -0.79,-0.285 0.26,-0.886 -0.57,-0.937 -2.91,-0.11 -6.61,-0.93 -8.35,-1.438 -2.48,-0.711 -5.66,0.188 -8.05,-0.554 -4.85,-1.485 -11.31,-0.957 -15.87,-2.442 11.09,0.02 22.11,3.028 34.84,3.66 0.89,0.051 1.89,-0.242 2.72,-0.117 0.61,0.09 1.28,0.617 1.94,0.664 0.32,0.031 0.9,-0.301 1.16,-0.301 1.71,-0.019 3.16,0.86 4.24,0.274 1.99,0.957 3.45,0.281 4.89,0.566 3.48,0.703 6.71,0.176 10.68,0.996 1.19,0.254 1.56,0.047 2.45,0.059 -0.02,0 0.6,0.5 0.62,0.508 0.43,0.039 0.74,-0.371 0.92,-0.332 0.8,0.129 1.33,1.086 2.2,0.449 -0.35,-0.051 -0.76,-0.059 -0.6,-0.496 1.11,-0.11 1.72,0.769 2.63,0.508 -0.24,-0.024 -0.55,-0.168 -0.21,-0.246 1.58,0.273 5.52,-0.625 8.19,1.328 0.69,-0.071 1.88,0.468 2.23,0.019 -1.15,-0.156 -2.17,-0.371 -3.26,-0.996 1.85,0.027 2.68,0.344 4.25,0.235 -0.17,0.722 -0.63,0.214 -0.34,1.054 0.68,-0.078 1.89,0.469 2.24,0.02 -0.48,-0.41 -1.45,-0.457 -1.68,-1.043 1.36,-0.129 2.8,0.152 4.24,0.222 10.38,0.489 21,0.696 31.57,1.231 8.65,0.449 16.23,-0.442 23.53,0.469 1.12,-0.45 2.9,-0.125 4.1,-0.496 3.29,0.75 8.97,-0.305 12.76,0.242 0.43,-0.196 1.07,-0.176 1.6,-0.293 0.69,-0.098 0.8,0.285 1.32,0.332 3.65,-0.821 8.12,-0.059 12.36,-0.274 5.04,-0.254 10.05,-1.172 14.89,-0.761 0.63,-0.215 1.31,-0.379 2.04,-0.489 14.89,-0.742 28.47,-1.836 42.42,-3.672 -0.81,-0.058 -1.63,-0.109 -2.45,-0.175 -0.49,0.175 -1.01,0.273 -1.38,0.566 -2.97,-0.207 -6.7,0.203 -10.15,0.82 -4.38,0.032 -9.79,0.879 -14.86,0.879 -4.22,0.996 -8.73,0.391 -14,1.328 -5.16,-0.128 -11.2,0.645 -16.63,0.418 -0.47,0.09 -0.76,0.383 -1.18,0.559 -2.47,-0.984 -3.75,0.637 -6.03,-0.293 1.11,-0.82 2.55,-0.293 3.83,-0.332 3.88,-0.105 7.92,-0.664 11.05,-0.41 1,-0.496 2.88,0 3.86,-0.547 16.39,-0.332 32.14,-2.305 48.46,-3.867 18.59,-2.735 37.76,-5.098 55.83,-9.063 -7.58,-0.234 -12.68,2.188 -19.59,2.617 -0.53,0.118 -0.64,0.696 -1.17,0.801 -0.49,-0.937 -1.17,0.449 -2,-0.32 -1.03,1.258 -4.33,0.035 -5.23,1.426 -1.53,-0.442 -2.82,0.027 -4.51,0.593 -4.91,-0.175 -8.99,1.68 -14.2,1.504 -3.13,1.204 -8.09,0.684 -11.77,1.836 -8.19,0.235 -16.88,2.09 -26.12,2.071 -13.8,0.996 -26.61,1.379 -40.98,2.175 -1.44,0.079 -2.8,-0.015 -4.24,-0.359 -0.34,0.332 -1.02,0.254 -1.41,0.527 -1.62,-0.754 -4.12,-0.039 -5.74,-0.937 -4.07,0.312 -8.27,0.019 -12.54,-0.02 -9.88,-0.089 -18.81,-0.058 -28.69,-0.351 -3.26,-0.078 -6.16,-0.574 -8.95,-0.449 -0.2,0.007 -0.67,0.351 -0.92,0.332 0.06,0.019 -0.11,-0.411 -0.41,-0.469 0.02,0 -0.6,0.156 -0.9,0.137 -10.93,-0.957 -20.44,-1.289 -30.58,-1.719 -0.11,-0.637 -1.33,-0.41 -1.7,-0.84 -2.88,0.742 -6.63,-0.352 -9.85,-0.234 -0.08,-0.489 0.71,-0.625 -0.15,-0.664 -0.88,-0.215 0.15,0.593 -0.74,0.566 -0.1,-0.449 -0.53,-0.645 -1.03,-0.773 -19.68,-1.754 -34.87,-3.055 -53.62,-5.829 -2.1,0.325 -5.05,-1.308 -6.91,-0.468 -0.07,-0.528 -0.71,-0.45 -1.44,-0.84 -0.91,-0.215 -1.45,0.019 -2.08,0.168 0.08,-0.364 -0.08,-0.578 -0.34,-0.696 -1.78,0.84 -2.9,-0.878 -4.72,0.02 -0.62,-1.16 -2.72,-0.176 -2.94,-1.465 7.82,0.652 17.2,2.324 26.27,3.406 9.95,1.164 19.91,1.731 27.89,3.196 0.68,0.234 0.49,-0.547 1.16,-0.313 0.56,0.039 0.65,0.43 1.07,0.567 4.78,-0.371 11.01,0.312 14.88,1.289 0.46,-0.254 0.96,-0.457 1.63,-0.457 0.96,0.105 2.01,0.144 2.4,0.703 0.69,0.047 1,-0.383 1.81,-0.227 0.85,-0.144 0.56,0.598 1.27,0.567 3.28,-1.036 7.99,0.976 11.68,0 2.43,0.964 6.89,0.461 8.6,1.347 0.64,0.137 0.73,-0.41 1.39,-0.285 0.33,0.051 0.1,0.567 0.61,0.5 0.54,-0.137 0.68,-0.801 1.64,-0.476 0.93,-0.09 0.98,0.535 1.71,0.613 0.72,-0.195 1.52,-0.281 2.28,-0.41 3.14,0.84 6.24,-0.34 9.78,1.007 0.43,-0.199 0.83,-0.46 1.39,-0.507 3.1,1.043 7.07,-0.52 9.99,0.996 1.82,-0.696 3.38,-0.031 5.36,0.301 0.06,-0.247 0.01,-0.606 0.29,-0.618 0.35,0.051 0.12,0.559 0.59,0.5 2.34,-0.761 6.51,-0.683 8.98,0.203 2.15,-0.535 7.21,-0.894 9.87,0.051 1.72,-0.449 4.37,0.157 5.87,-0.547 5.04,0.821 7.56,-0.175 10.5,0.508 4.18,-1.406 9.83,0.313 13.73,-0.781 0.47,0.168 0.6,0.574 1.31,0.527 0.87,-0.625 2.89,-0.898 3.82,-0.097 0.47,-0.325 0.97,-0.633 1.64,-0.743 3.6,0.176 8.41,-0.5 12.79,-0.488 1.02,0 2.11,-0.129 2.9,0.449 0.22,-0.605 1.08,-0.195 1.79,-0.293 0.95,-0.136 5.3,-0.91 4.12,-0.769 -2.62,-0.168 -3.84,-0.078 -5.84,0.203 -0.66,-0.09 -1.48,0 -1.77,-0.359 -3.07,1.023 -6.03,0.222 -8.99,0.371 -5.38,0.242 -11.41,0.633 -17.7,-0.168 -1.39,0.937 -2.59,-0.489 -3.83,0.312 -0.44,-0.871 -2.18,-0.097 -3.14,-0.058 -1.86,-0.696 -3.59,-0.047 -5.36,-0.039 -3.57,0.039 -8.34,-0.293 -11.61,-0.188 -1.75,0.07 -3.76,-0.066 -4.95,-0.008 -3.58,0.188 -7.38,-0.359 -11.17,-0.41 -5.61,-0.078 -12.98,-0.195 -17.89,-0.469 -0.94,0.079 -0.69,-0.761 -1.74,-0.605 -0.5,-0.149 0.02,0.996 -0.71,0.586 -5.73,-0.625 -13.27,-0.305 -18.69,-1.524 -1.76,0.586 -6.74,0.164 -9.58,-0.593 -3.74,0.488 -8.66,-0.547 -13.81,-0.891 -9.58,-0.644 -19.04,-1.602 -26.18,-2.402 -0.65,-0.032 -0.64,-0.567 -1.25,-0.586 -0.08,0.234 -0.07,0.605 -0.33,0.605 -2.25,-0.781 -3.96,-1.308 -5.88,-1.355 0.23,0.066 0.48,0.418 0.16,0.445 -0.95,-0.691 -3.11,-1.519 -4.07,-1.59 0.35,0.84 1.85,0.821 2.28,1.582 -3.05,-0.586 -4.25,-0.383 -6.83,-1.054 -2.99,0.683 -6.68,-1.309 -9.75,-0.789 -0.67,-0.696 -1.55,-0.383 -2.42,-0.54 -0.24,-0.039 -0.28,-0.46 -0.39,-0.488 -0.23,-0.019 -0.33,0.457 -0.49,0.383 -0.94,-0.422 -2.19,-1.828 -3.27,-0.637 0.74,0.02 1.61,-0.254 1.69,0.657 -1.37,0.007 -1.76,-0.754 -2.53,-1.204 -1.82,0.711 -4.34,-1.379 -5.88,-1.406 0.31,0.305 1.06,1.231 0.72,1.387 -2.51,-0.82 -3.99,-0.879 -6.2,-0.586 0.04,-0.996 -1.41,-0.899 -2.31,-1.184 -0.47,-0.007 0.27,0.618 -0.54,0.578 -2.02,-1.281 -3.01,-0.632 -5.46,-0.949 0.05,-0.34 0.57,-0.094 0.51,-0.574 -2.91,-0.137 -3.81,-0.625 -5.8,-1.887 -0.25,0.637 0.56,0.5 0.31,1.125 -5.89,0.078 -13.11,-2.218 -17.18,-2.375 -0.19,-0.886 -1.74,-0.769 -2.51,-1.226 -0.01,0.496 -0.17,0.801 -0.58,0.789 -0.29,-0.586 0.46,-0.781 -0.3,-0.918 -2.12,-0.391 -3.46,-0.781 -5.16,-1.602 0.26,1.082 -0.65,0.938 -1.3,1.121 -0.35,-0.242 0.92,-0.75 -0.54,-0.73 -0.49,-0.535 0.28,0.266 0.12,0.664 -0.93,-0.273 -1.29,0.195 -1.86,0.391 -1.86,-1.68 -5.33,-1.036 -7.1,-2.129 -7.75,-1.035 -15.29,-2.52 -23.69,-5.078 -0.72,-0.086 -0.93,0.488 -1.83,0.168 -5.45,-1.934 -12.69,-3.586 -18.55,-4.641 -0.6,-0.039 -0.04,-0.859 -0.77,-0.781 -4.68,-0.469 -8.96,-2.266 -14.31,-3.184 0.16,-0.547 -1.25,0 -0.76,-0.781 0.65,-0.078 0.51,0.39 1.06,0.39 0.17,-1.836 2.82,-0.195 3.17,-0.136 -0.49,0.468 -2.08,-0.547 -2.3,0.293 16.46,3.32 36.34,7.722 55.02,11.14 7.35,1.352 14.01,2.231 20.6,3.41 2.83,0.508 5.75,1.438 8.77,1.231 1.04,0.684 4.39,1.238 6.08,1.492 10.21,1.516 19.54,2.746 29.76,3.977 3.42,0.39 7.13,1.23 10.99,1.613 3.56,0.359 8.36,0.379 10.79,1.57 0.02,-0.39 0.29,-0.488 0.72,-0.351 2.58,0.429 5.74,0.449 7.91,1.172 2.97,-0.254 6.11,0.839 9.17,0.234 0.07,0.605 0.51,0.906 1.24,1.016 1,0.332 0.84,-0.782 1.83,-0.442 7.05,1.035 13.37,1.145 19.51,1.809 -0.01,-0.489 0.17,-0.801 0.55,-0.813 0.98,0.266 3.23,0.278 4.72,0.09 -5.77,-0.266 -11.6,-1.211 -17.56,-1.328 -0.64,-0.117 -0.89,-0.496 -1.51,-0.605 -9.16,-0.208 -18.41,-2.071 -27.63,-3.106 -0.75,-0.078 -1.69,0.195 -2.47,0.137 -6.34,-0.43 -12.49,-1.446 -18.58,-2.129 -3.63,-0.43 -7.24,-1.289 -10.73,-1.836 -2.26,-0.371 -4.46,-0.293 -6.63,-0.684 -2.84,-0.488 -5.67,-1.23 -8.54,-1.582 -1.36,-0.168 -2.73,0.086 -4.02,-0.117 -0.5,-0.078 -0.96,-0.566 -1.46,-0.644 -0.88,-0.118 -1.86,0.214 -2.72,0.058 -1.89,-0.32 -3.69,-1.57 -5.71,-0.793 0.1,-0.457 -0.17,-0.398 -0.61,-0.515 -4.98,-1.258 -10.14,-1.551 -15.08,-2.598 -5.09,-1.035 -10.52,-2.246 -15.9,-3.203 -8.95,-1.563 -19.45,-3.985 -29.44,-5.391 -0.26,-0.019 -0.52,-0.82 -0.89,-0.129 0.01,-0.34 -0.65,-1.148 -1.02,-0.593 0.28,0.07 0.52,0.136 0.38,0.488 -0.44,-0.196 -1.48,0.039 -1.5,-0.457 -0.07,-0.598 1,0.32 0.94,-0.285 -0.99,0.136 -1.89,-0.782 -2.41,-0.379 0.4,0.093 0.71,0.261 0.81,0.554 -2.12,-0.421 -4.48,-1.093 -6.75,-1.281 -3.12,-1.668 -8.1,-1.492 -10.53,-2.801 -0.67,-0.214 -0.6,0.567 -1.38,0.215 -15.21,-4.465 -32.52,-8.828 -45.85,-13.722 -10.69,-2.879 -20.29,-7.301 -31.17,-10.926 -4.13,-2.41 -9.94,-3.731 -13.55,-6.504 0.54,-0.41 -0.01,-0.242 -0.09,-0.672 -9.22,-4.035 -18.24,-8.215 -27.08,-12.523 -2.42,-2.704 -6.95,-4.012 -10.15,-6.219 -1.53,-0.449 -3.98,-1.426 -5.28,-2.598 0.9,0.09 1.68,1.223 2.54,0.723 -1.28,-0.508 -3.31,-0.899 -2.71,-2.078 -3.05,-1.106 -5.24,-2.618 -7.92,-3.84 0.4,-0.957 -1.78,-1.074 -0.98,-2.832 -0.63,-0.117 -1.03,-0.41 -1.14,-0.899 2.14,-0.019 2.73,0.938 5.25,1.516 -0.5,0.77 0.48,0.562 0.48,0.984 1.4,0.266 2.12,0.586 2.96,0.821 0.78,0.449 -0.14,0.937 0.89,1.074 0.9,0.137 0.47,-0.352 1.43,-0.371 -0.7,-0.039 -0.99,-0.469 -0.52,-0.781 3.51,1.152 5.21,3.085 8.57,3.945 -0.97,-1.367 -3.57,-1.699 -4.75,-2.942 2.82,0.54 4.92,2.532 6.98,2.942 -0.34,-1.758 -3.43,-2.422 -5.28,-3.692 2.37,0.547 4.85,1.739 7,1.836 11.22,5.469 22.24,11.875 33.54,16.641 1.23,0.859 3.22,2.188 4.99,2.051 -0.99,-0.508 -2.23,-0.86 -2.83,-1.641 -3.34,-0.722 -4.85,-2.656 -8.04,-3.496 -0.66,-1.394 -3.32,-1.484 -4.39,-2.605 -4.45,-1.418 -7.45,-4.758 -12.09,-5.442 0,-0.429 -0.33,-0.644 -0.49,-0.957 -2.53,-0.254 -3.99,-2.148 -6.01,-3.39 -3.31,-2.047 -7.51,-2.997 -10.8,-5.028 -1.02,-0.625 -1.83,-1.64 -2.92,-2.129 8.1,3.43 15.39,7.403 23.22,10.996 -0.05,0.215 -0.08,0.43 -0.13,0.645 0.65,0.312 0.71,-0.215 1.16,-0.215 4.34,2.207 9.61,4.785 13.92,6.414 -5.2,-2.996 -11.56,-5.223 -16.68,-8.269 3.2,0.566 6.03,2.375 8.86,2.597 -11.97,-3.593 -22.04,-9.629 -32.92,-14.902 -1.64,-2.258 -5.62,-3.035 -7.37,-5.254 2.99,1.355 6.06,3.621 9.91,3.789 -4.21,-1.121 -7.8,-3.391 -11.15,-5.359 -3.4,-2.004 -7.14,-3.547 -9.29,-6.555 -1.42,-0.527 -3.08,-1.113 -4.12,-0.43 0.16,-0.617 -0.26,-0.82 -0.43,-1.203 -1.68,0.129 -2.07,0.512 -3.52,0.813 -0.9,-0.078 -1.1,-0.625 -1.82,-0.828 -3.05,-0.774 -4.35,-2.661 -7.26,-3.539 -1.26,-1.122 -2.5,-2.262 -4.47,-2.958 -1.72,-1.796 -4.93,-2.656 -6.3,-4.667 4.91,2.07 9.48,4.355 14.64,6.25 1.6,1.386 4.87,1.718 6.19,3.3 0.06,-0.468 0.77,0.059 1.11,0.008 10.69,4.875 20.63,10.246 31.34,15.063 33.96,16.851 70.19,32.808 109.97,44.722 0.42,0.332 1.17,0.442 1.42,0.903 23.36,6.406 48.55,12.722 74.18,17.808 23.74,4.719 48.34,8.703 70.11,11.379 3.92,0.481 10.07,1.211 12.52,1.582 7.86,1.152 16.23,2.18 23.87,2.012 -9.06,-1.016 -21.39,-2.988 -29.72,-3.399 -0.35,-0.078 -0.12,-0.578 -0.6,-0.507 -7.85,-0.176 -15.63,-2.286 -22.55,-3.348 -11.76,-1.828 -23.82,-3.625 -35.76,-6.008 -8.43,-1.68 -16.96,-3.137 -25.22,-4.765 -2.83,-0.555 -6.33,-1.25 -8.2,-1.883 -0.51,-0.168 -1.38,-0.403 -1.93,-0.52 -8.23,-1.719 -15.05,-3.222 -22.38,-5.215 -5.47,-0.605 -12.91,-3.742 -19.16,-4.402 -4.72,-1.828 -9.79,-3.422 -15.27,-4.73 -3.02,-1.512 -7.38,-2.04 -9.91,-3.446 -4.83,-1.379 -6.28,-2.617 -11.35,-2.617 -1.97,-1.641 -4.77,-0.945 -6.47,-2.656 -1.57,0.039 -2.34,-0.645 -3.54,-1.289 -3.4,-0.586 -5.11,-2.168 -8.83,-2.903 -4.95,-2.39 -12.04,-4.324 -16.35,-6.922 -3.63,-0.605 -6.62,-3.203 -10.58,-4.179 -3.3,-1.571 -6.99,-3.809 -10.48,-4.629 -1.28,-0.906 -3.37,-2.102 -4.9,-2.254 -1.8,-1.574 -5.08,-2.141 -6.84,-3.742 -15.43,-6.531 -29.43,-14.297 -44.56,-21.543 -4.69,-1.903 -9.32,-3.828 -13.65,-5.957 -6.07,-2.344 -11.78,-5.528 -17.97,-8.289 -2.62,-1.836 -5.71,-3.371 -8.66,-5 0.09,-0.676 -1.32,-0.918 -0.56,-1.457 1.08,0.554 2,2.324 3.11,0.918 -1.19,-0.41 -2.23,-0.684 -3.2,-1.602 0.49,-0.851 0.19,-0.859 -0.09,-1.562 -3.39,0.078 -6.91,-0.039 -10.39,-0.11 -3.25,-1.265 -5.69,-3.054 -9.02,-4.246 0.06,1.34 1.71,1.68 2.24,2.727 -0.2,0.34 -0.99,-0.246 -1.15,0.183 3.2,1.309 8.11,1.504 8.25,3.848 0.95,0.176 1.39,-0.457 2.3,-0.371 3.04,1.277 5.44,2.949 8.37,4.297 -0.15,0.625 0.38,0.832 0.35,1.406 9.42,4.473 17.72,9.641 26.15,14.719 -2.1,0.808 -3.76,2.129 -6.34,1.511 -3.75,1.661 -7.97,2.559 -12.82,2.54 -0.89,-1.172 -2.24,-1.368 -3.79,-1.055 1.22,0.371 2.1,0.527 2.8,1.496 -0.29,0.203 -0.39,0.691 -0.48,1.219 -1.1,0.058 -1.53,0.507 -2.85,0.722 -2.52,-1.074 -4.66,-1.797 -5.71,-3.476 1.02,-0.039 0.28,1.035 1.35,0.957 0.13,-0.488 -0.21,-0.696 0.09,-1.309 -1.18,-0.195 -1.72,0.547 -2.8,0.488 -4.2,-1.933 -6.98,-4.785 -9.66,-7.675 -0.65,0.449 -1.35,0.144 -1.45,-0.547 -0.33,0.058 -0.2,0.801 -0.6,0.742 -0.76,-0.352 -1.02,-1.25 -1.88,-0.637 0.16,0.266 0.77,0.246 0.5,0.774 -1.53,0.176 -3.07,-0.891 -3.85,-1.746 0.15,-0.657 -0.19,-1.496 0.43,-1.907 -1.02,-0.078 -1.08,1.348 -1.91,1.575 -1.7,-0.911 -2.94,-2.141 -4.41,-3.215 -1.35,-0.996 -3,-2.481 -4.64,-3.067 -1.48,-0.527 -3.12,-0.058 -4.8,-0.437 -2.73,-0.61 -5.39,-2.844 -8.25,-3.906 -1.7,-0.637 -3.34,-0.403 -4.45,-1.926 0.13,-0.938 0.83,-0.547 0.56,-1.426 -3.9,-0.769 -6.65,2.59 -11.15,1.797 -0.71,0.039 -0.12,-0.762 -0.69,-0.828 -0.04,0.801 -0.42,1.082 -0.77,1.375 -1.68,-0.156 -3.27,0.644 -5,0.359 -1.62,-0.281 -2.62,-1.746 -3.93,-1.394 1.7,1.257 4.02,2.097 6.73,2.714 0.1,0.45 -0.81,0.567 -0.21,0.84 3.39,-1.211 8.08,-0.351 11.22,-1.992 3.35,0.703 6.47,1.543 8.67,2.93 -3.03,2.844 -5.97,5.871 -9.63,7.715 -0.33,0.859 -0.22,1.445 -0.03,1.992 -2.48,3.281 -6.16,3.281 -9.46,4.863 0.66,0.332 1.84,0.274 2.72,0.86 -2.26,1.628 -5.05,2.375 -7.76,3.261 0.18,0.828 -0.28,0.489 -0.51,1.211 -1.93,0.774 -3.82,1.133 -4.42,3.379 2.82,-0.547 5.98,-1.926 9.95,-1.172 3.93,0.75 7.78,2.403 10.41,4.453 -4.9,-1.933 -6.44,1.504 -9.4,2.657 2.98,0.332 5.45,-0.196 8.02,-0.547 4.63,2.324 8.77,4.961 11.52,8.437 -1.26,0.313 -2.48,0.684 -3.81,0.879 -1.52,-0.879 -2.48,-2.078 -3.78,-3.086 0.71,-0.43 0.17,-1.008 0.13,-1.523 -0.13,-0.645 -0.61,0.566 -1.16,0.176 -3.78,-1.797 -7.36,-0.176 -10.91,0.332 -1.55,-0.391 -1.87,-1.504 -3.38,-1.907 -1.55,1.887 -4.2,1.985 -5.54,4.231 1.07,0.566 1.08,-0.598 2.07,-0.176 1.06,0.137 3.61,1.113 3.7,0.664 -0.72,-0.312 -2.06,-0.215 -2.3,-0.781 0.8,-0.742 2.43,-0.227 3.25,0.554 -0.33,0.461 -1,0.344 -0.99,1.321 1.05,1.14 2.72,3.039 1.13,4.695 0.85,-0.027 0.57,0.617 0.91,0.891 -0.14,-1.485 1.03,-1.074 1.38,-1.016 -0.24,-0.117 -0.86,-0.879 -0.23,-0.937 1.22,-0.235 0.23,1.113 0.71,1.726 0.45,-0.367 0.46,-1.836 0.51,-2.097 1.29,-0.567 2.34,0.429 3.13,1.164 1.1,-1.692 3.94,0.808 4.28,1.902 -1.41,-0.02 -2.19,0.976 -3.28,1.445 -0.83,-0.058 -1.41,0.293 -2.12,0.391 -1.13,-0.117 -2.14,-0.078 -3.17,-0.086 -0.46,0.594 -0.92,-1.047 -1.12,-0.031 -0.22,0.988 0.83,1.172 0.88,1.972 5.57,2.246 10.69,4.336 13.56,7.813 -0.88,0.722 -1.67,1.582 -2.25,2.812 -2.49,0.723 -5.38,0.774 -6.86,3.059 2.46,-0.285 6.4,-1.828 8.17,1.004 -2.05,1.203 -3.75,2.969 -6.6,2.91 -0.79,1.328 -2.24,1.687 -3.82,1.777 -0.46,-0.105 -0.56,-1.347 -0.94,-0.898 0.64,1.035 -0.92,1.035 -1.44,1.23 1.01,0.703 2.73,0.801 3.73,0.645 4.55,0.918 7.47,2.812 9.97,4.961 -1.21,0.664 -2,0.801 -2.54,2.082 0.99,-0.305 0.45,0.457 1.21,0.711 0.54,-0.696 1.99,-1.465 2.89,-0.664 -1.38,2.304 -4.24,2.043 -3.67,4.922 -0.64,-0.45 -0.78,-1.172 -1.51,-0.352 2.3,1.438 5.49,2.344 5.12,5.391 4.66,1.64 9.55,3.117 13.14,5.41 0.71,-0.11 1.31,1.269 1.52,0.332 -0.15,-0.567 -1.58,-1.914 -2.87,-2.422 -0.6,-0.215 0.34,0.918 -0.4,0.801 -0.87,-0.938 -2.11,-2.656 -3.28,-1.621 -0.47,-1.692 -2.49,-1.953 -3.69,-2.832 -0.67,-0.215 0.41,0.742 -0.39,0.586 -0.1,-0.372 -0.64,-1.387 -0.06,-1.575 2.07,1.047 4.19,3 6.01,3.586 -1.69,-1.523 -4.3,-2.441 -5.41,-4.336 0.36,0.032 0.28,-0.41 0.16,-0.617 1.2,0.227 2.32,0.324 3.03,-0.203 -1.26,-0.156 -2.07,-1.621 -3.36,-2.305 -2.69,-0.468 -3.05,-2.363 -3.3,-4.304 3.51,0.847 6.57,3.074 9.57,4.832 3.11,1.816 6.13,3.769 9.2,5.605 18.67,11.192 38.12,21.328 58.39,31.27 6.66,3.672 13.65,7.109 21.18,10.222 36.41,17.688 80.28,33.301 121.88,42.961 23.65,6.231 48.45,12.325 73.25,16.055 13.37,2.012 27.56,5.137 42.24,7.352 9.84,1.488 20.8,2.707 32.19,4.113 5,0.625 10.84,1.847 15.28,2.285 15.38,1.555 27.56,3.125 41.93,3.477 -4.25,-0.899 -9.07,-0.625 -13.61,-1.055 -1.63,-0.176 -3.15,-0.684 -4.72,-0.762 -0.28,-0.012 -0.68,0.332 -0.95,0.332 -1.43,0.02 -3.35,-0.605 -5.18,-0.808 -4.49,-0.52 -8.02,-1.497 -11.92,-1.606 -0.4,-0.008 -0.79,0.344 -1.19,0.293 -1.05,-0.125 -2.06,-0.691 -3.11,-0.809 -0.49,-0.058 -1.03,0.059 -1.59,0.04 -1.61,-0.079 -3.86,-0.704 -5.84,-0.926 -4.25,-0.473 -7.97,-0.742 -11.52,-1.184 -3.08,-0.39 -5.93,-1.308 -8.56,-1.074 -0.63,-0.391 -1.94,-0.273 -2.41,-0.75 -1.02,-0.285 0.26,0.633 -0.73,0.352 -1.39,-1.184 -4.25,-0.333 -6.09,-0.793 -0.02,0 0.26,-0.403 0.28,-0.391 -1.56,-0.254 -3.07,-0.059 -4.68,-0.828 -0.38,0.359 -1.49,-0.168 -1.89,0.183 -0.72,-0.566 -3.24,-0.976 -3.83,-0.285 -0.05,-0.32 -0.24,-0.398 0.08,-0.633 -0.68,-0.363 -0.26,0.664 -0.95,0.301 -2.54,-1.199 -6.71,-1.238 -9.16,-1.648 -0.27,-0.047 -0.58,-0.496 -0.84,-0.547 -3.76,-0.789 -7.74,-0.547 -10.08,-1.582 -3.73,0.246 -8.17,-1.445 -12.78,-2.012 -0.5,-0.058 -1.11,0.254 -1.58,0 -3.53,-1.172 -7.72,-1.348 -12.06,-2.156 -1.33,-0.258 -2.57,-1.067 -4.01,-0.578 -2.67,-1.281 -6.42,-1.184 -8.81,-2.395 1.1,-0.996 2.05,0.051 3.92,-0.086 0.46,0.371 1.22,0.547 1.68,0.918 0.32,-0.332 1.2,-0.449 1.89,-0.39 3.12,0.312 8.07,1.699 9.95,2.324 -0.27,0.019 -0.68,-0.735 -0.13,-0.684 9.09,1.934 19.33,3.43 28.34,5.059 7.64,1.367 15.5,2.082 22.88,3.457 1.11,0.215 2.18,0.715 3.31,0.867 11.89,1.652 23.76,3.176 35.82,4.438 26.62,2.761 52.07,4.363 79.53,6.433 -0.38,-0.691 -1.58,0.36 -2,-0.41 0.09,-0.605 1.55,0.332 1.65,-0.273 -4.59,-0.497 -9.45,-1.094 -14.28,-1.426 -5.32,-0.363 -10.77,-0.879 -15.86,-1.211 -3.7,-0.235 -7.37,-0.059 -10.43,-0.899 -0.34,0.332 -1.04,0.223 -1.42,0.508 -0.35,-0.476 -1.09,-0.539 -1.75,-0.644 -3.27,-0.489 -7.02,-0.43 -10.41,-0.938 -0.38,-0.051 -0.52,-0.429 -0.85,-0.527 -0.01,0 -0.33,0.41 -0.51,0.371 -0.28,-0.051 -0.17,-0.449 -0.4,-0.469 -0.92,-0.117 -1.98,0.403 -2.72,-0.312 -0.23,0.449 -1.01,0.246 -1.43,0.488 -0.83,-1.055 -2.73,-0.898 -3.79,-0.645 -0.47,-0.253 -0.67,-0.683 -1.04,-0.988 -1.18,1.262 -2.66,0.879 -4.41,0.578 0.02,-0.371 0.13,-0.664 0.34,-0.84 -0.96,-0.312 -0.56,1.016 -1.27,0.957 -1.39,-0.246 -2.69,-1.562 -4.37,-1.613 -0.53,-0.015 -0.88,0.363 -1.41,0.266 -0.66,-0.11 -1.25,-0.586 -1.99,-0.664 -0.64,0.383 -1.2,0.371 -1.78,-0.215 -0.12,0.937 -2.11,0.898 -2.78,0.312 0.42,-0.039 1.31,0.469 1.17,-0.293 -1.54,-0.664 -3.26,0.032 -4.66,-0.988 -3.17,0.149 -7.34,-1.211 -11.11,-0.926 -2.14,-1.171 -4.69,-1.308 -6.95,-1.074 -0.34,-0.066 -0.09,-0.586 -0.61,-0.515 -2.74,0.476 -4.67,-1.633 -6.36,-0.375 0.06,-0.79 -0.68,-0.516 -0.81,-0.75 -2.01,-0.137 -2.9,-0.274 -5.04,0 0.04,-0.215 0.06,-0.43 0.1,-0.633 -0.67,-0.254 -0.38,0.691 -1.19,0.269 -3.3,-1.336 -6.76,-1.57 -10.44,-2.234 -9.64,-1.731 -19.39,-3.555 -29.43,-5.32 -10.54,-1.86 -21.03,-3.664 -31.39,-5.84 -7.11,-1.516 -14.31,-3.949 -21.41,-4.797 -4.46,-1.809 -10.88,-2.442 -15.74,-4.434 -4.87,-0.781 -10.54,-2.402 -16.64,-4.433 18.3,3.613 38.37,9.316 59.26,12.507 0.39,0.059 0.92,0.333 1.3,0.403 23.96,4.472 48.21,8.066 71.03,11.523 0.45,-1.113 -1,-0.808 -0.64,-1.836 0.37,0.606 2.24,0.137 2.61,0.762 -0.31,0.469 -1.42,-0.09 -1.27,0.93 2.32,0.293 4.75,0.711 6.59,0.398 -1.53,-0.547 -3.9,0 -4.84,-1.484 1.23,0.429 2.54,-0.41 2.63,0.781 2.18,-0.664 4.07,0.676 6.73,1.055 0.42,-0.996 2.69,-0.254 4.19,-0.567 0.53,0.196 0.37,0.891 1.27,0.813 1.89,-0.031 4.72,0.523 5.95,1.59 -0.26,0 -0.63,-0.098 -0.7,0.136 0.55,-0.058 1.59,0.469 1.83,0 -1.17,-0.019 -0.59,-0.254 -0.82,-0.754 2.38,0.208 3.34,0.52 5.88,0.5 0.32,0.938 1.64,0.458 2.58,1.172 -0.26,0.008 -0.62,-0.097 -0.69,0.137 0.68,-0.039 1.89,0.508 2.28,0.059 -3.27,-0.938 2.39,-0.227 2.72,0.097 0.45,-0.722 -0.75,-0.215 -0.59,-0.715 1.97,0.305 3.66,0.254 5.81,1.125 0.36,-0.125 0.4,-0.656 0.96,-0.546 3.27,0.246 5.22,1.621 8.14,0.722 0.85,0.086 1.4,0.371 1.98,0.657 1.26,-0.43 3.32,-0.11 4.75,0.32 -0.72,0.566 0.6,0.918 0.87,0.312 -0.24,-0.058 -0.64,-0.039 -0.64,-0.293 1.58,0.313 3.86,0.098 4.69,0.957 0.88,-1.132 2.45,-0.117 4.05,0.45 -0.26,0.019 -0.65,-0.098 -0.71,0.144 0.57,-0.066 1.61,0.449 1.82,-0.008 -0.75,0.059 -0.28,-0.5 -0.12,-0.664 1.82,0.293 2.59,0.489 4.54,0.047 1.25,0.949 1.89,0.512 3.42,0.156 0.94,-0.066 0.3,1.067 1.24,0.996 2.3,-1.062 3.5,-0.332 6.65,-0.164 0,0.403 -0.36,1.055 0.37,0.911 0.45,0.222 2.56,-0.969 3.25,-0.52 -0.35,-0.039 -0.81,0.508 -0.05,0.438 1.02,0.285 -0.25,-0.594 0.52,-0.606 1.42,0.012 2.06,0.559 2.41,0.91 1.48,-0.097 2.68,1.035 2.69,0.489 0.23,-0.657 0.3,-1.309 0.66,-1.875"
         style="fill:#354b9b;fill-opacity:1;fill-rule:nonzero;stroke:none"
         id="path14" /><path
         d="m 372.074,356.895 -57.711,0 0,250.468 57.711,0 0,-250.468 z M 381,711.465 c 0,-20.82 -17.254,-38.067 -38.074,-38.067 -20.231,0 -37.481,17.247 -37.481,38.067 0,20.84 16.657,37.5 38.075,37.5 20.82,0 37.48,-16.66 37.48,-37.5"
         style="fill:#231f20;fill-opacity:1;fill-rule:nonzero;stroke:none"
         id="path16" /><path
         d="m 496.277,607.363 0,-23.203 c 22.61,22.012 39.868,29.746 67.235,29.746 61.277,0 90.429,-33.32 90.429,-103.515 l 0,-153.496 -57.711,0 0,139.804 c 0,49.375 -11.304,65.449 -47,65.449 -38.667,0 -52.953,-22.617 -52.953,-84.492 l 0,-120.761 -57.707,0 0,250.468 57.707,0"
         style="fill:#231f20;fill-opacity:1;fill-rule:nonzero;stroke:none"
         id="path18" /><path
         d="m 780.508,356.895 -57.711,0 0,196.328 -20.824,0 0,54.14 20.824,0 0,96.367 c 0,33.926 5.351,54.747 17.848,68.418 13.089,14.883 39.265,25.586 62.468,25.586 15.473,0 23.203,-1.777 40.457,-8.925 l 0,-58.887 c -20.23,10.117 -26.175,12.48 -36.886,12.48 -20.231,0 -26.176,-11.289 -26.176,-52.949 l 0,-82.09 63.062,0 0,-54.14 -63.062,0 0,-196.328"
         style="fill:#231f20;fill-opacity:1;fill-rule:nonzero;stroke:none"
         id="path20" /><path
         d="m 920.77,481.23 c 0,-48.183 29.75,-80.312 74.371,-80.312 45.219,0 74.959,32.129 74.959,80.312 0,48.79 -29.74,80.918 -74.959,80.918 -44.621,0 -74.371,-32.128 -74.371,-80.918 z m 208.23,0 c 0,-73.769 -58.3,-132.07 -133.27,-132.07 -74.96,0 -133.855,58.301 -133.855,132.07 0,74.961 58.301,132.676 133.855,132.676 74.97,0 133.27,-57.715 133.27,-132.676"
         style="fill:#231f20;fill-opacity:1;fill-rule:nonzero;stroke:none"
         id="path22" /><path
         d="m 1240.99,607.363 0,-22.617 c 21.42,22.617 35.1,29.746 57.71,29.746 17.85,0 28.56,-3.554 48.19,-15.469 l -26.77,-52.949 c -13.09,9.531 -20.23,12.5 -32.13,12.5 -32.13,0 -47,-22.617 -47,-71.992 l 0,-129.687 -57.71,0 0,250.468 57.71,0"
         style="fill:#231f20;fill-opacity:1;fill-rule:nonzero;stroke:none"
         id="path24" /><path
         d="m 1437.65,607.363 0,-23.203 c 22.02,23.203 35.1,29.746 60.09,29.746 27.96,0 51.76,-13.086 67.23,-36.894 17.85,23.808 43.43,36.894 74.37,36.894 55.92,0 85.07,-35.097 85.07,-102.324 l 0,-154.687 -57.71,0 0,139.218 c 0,47.578 -10.7,66.035 -38.67,66.035 -32.72,0 -46.99,-22.617 -46.99,-76.152 l 0,-129.101 -57.71,0 0,138.613 c 0,45.215 -12.5,66.64 -38.68,66.64 -32.72,0 -47,-23.203 -47,-76.152 l 0,-129.101 -57.71,0 0,250.468 57.71,0"
         style="fill:#231f20;fill-opacity:1;fill-rule:nonzero;stroke:none"
         id="path26" /><path
         d="m 1837.35,481.836 c 0,-47.012 29.15,-80.918 69.61,-80.918 42.24,0 71.39,32.715 71.39,80.918 0,46.992 -29.15,80.312 -71.39,80.312 -39.87,0 -69.61,-33.906 -69.61,-80.312 z m 195.14,125.527 0,-250.468 -57.71,0 0,26.171 c -26.77,-24.98 -46.41,-33.906 -76.75,-33.906 -69.61,0 -119.58,55.918 -119.58,134.453 0,74.375 51.16,130.293 118.4,130.293 31.52,0 52.94,-10.117 77.93,-35.703 l 0,29.16 57.71,0"
         style="fill:#231f20;fill-opacity:1;fill-rule:nonzero;stroke:none"
         id="path28" /><path
         d="m 1333.38,232.344 c -2.37,4.426 -5.22,6.472 -9.01,6.472 -4.43,0 -8.06,-3.152 -8.06,-7.105 0,-3.957 2.05,-6.008 10.59,-9.484 15.81,-6.641 19.76,-10.75 19.76,-20.711 0,-12.016 -9.8,-21.336 -22.29,-21.336 -11.06,0 -18.81,5.519 -23.08,16.754 l 9.96,4.101 c 3.79,-8.055 6.95,-10.586 13.28,-10.586 6.01,0 10.59,4.422 10.59,10.274 0,5.058 -2.37,7.429 -10.59,10.91 -15.18,6.637 -18.97,10.43 -18.97,19.129 0,10.586 8.22,18.34 19.6,18.34 7.59,0 13.59,-3.957 17.55,-11.868 l -9.33,-4.89"
         style="fill:#231f20;fill-opacity:1;fill-rule:nonzero;stroke:none"
         id="path30" /><path
         d="m 1400.76,214.641 c 0,-13.918 9.8,-24.192 22.92,-24.192 13.59,0 23.4,10.117 23.4,24.192 0,14.226 -9.65,24.175 -23.4,24.175 -13.28,0 -22.92,-10.269 -22.92,-24.175 z m 57.85,0 c 0,-19.446 -15.17,-34.461 -34.77,-34.461 -19.29,0 -34.63,15.328 -34.63,34.461 0,19.121 15.34,34.461 34.63,34.461 19.6,0 34.77,-15.02 34.77,-34.461"
         style="fill:#231f20;fill-opacity:1;fill-rule:nonzero;stroke:none"
         id="path32" /><path
         d="m 1518.73,182.07 -11.23,0 0,55.164 -6.16,0 0,10.442 6.16,0 0,27.976 c 0,15.813 6.33,23.559 19.13,23.559 3.32,0 4.9,-0.316 8.69,-1.43 l 0,-11.375 c -3.47,1.262 -5.06,1.582 -7.59,1.582 -7.1,0 -9,-3.164 -9,-15.019 l 0,-25.293 16.59,0 0,-10.442 -16.59,0 0,-55.164"
         style="fill:#231f20;fill-opacity:1;fill-rule:nonzero;stroke:none"
         id="path34" /><path
         d="m 1592.74,182.07 -11.22,0 0,55.164 -6.8,0 0,10.442 6.8,0 0,23.711 11.22,0 0,-23.711 11.7,0 0,-10.442 -11.7,0 0,-55.164"
         style="fill:#231f20;fill-opacity:1;fill-rule:nonzero;stroke:none"
         id="path36" /><path
         d="m 1669.59,203.254 20.56,49.48 20.39,-49.48 19.6,44.422 12.65,0 -32.57,-70.188 -20.23,48.84 -20.23,-48.84 -32.26,70.188 12.65,0 19.44,-44.422"
         style="fill:#231f20;fill-opacity:1;fill-rule:nonzero;stroke:none"
         id="path38" /><path
         d="m 1791.35,215.43 c 0,-14.551 9.01,-24.981 21.5,-24.981 13.12,0 21.97,10.117 21.97,24.817 0,13.914 -9.17,23.718 -22.12,23.718 -12.02,0 -21.35,-10.285 -21.35,-23.554 z m 53.91,32.246 0,-65.606 -11.23,0 0,9.168 c -6.32,-7.738 -13.27,-11.058 -22.76,-11.058 -18.02,0 -31.46,14.847 -31.46,34.769 0,19.922 13.28,34.309 31.46,34.309 9.33,0 16.28,-3.32 22.76,-10.906 l 0,9.324 11.23,0"
         style="fill:#231f20;fill-opacity:1;fill-rule:nonzero;stroke:none"
         id="path40" /><path
         d="m 1909.64,247.676 0,-7.117 c 5.85,6.961 8.69,8.699 14.86,8.699 3.63,0 6.01,-0.637 9.96,-2.852 l -5.22,-10.117 c -2.84,1.738 -4.27,2.219 -6.64,2.219 -9.17,0 -12.96,-6.488 -12.96,-21.82 l 0,-34.618 -11.22,0 0,65.606 11.22,0"
         style="fill:#231f20;fill-opacity:1;fill-rule:nonzero;stroke:none"
         id="path42" /><path
         d="m 2021.76,222.063 c -2.06,10.281 -9.65,16.921 -19.29,16.921 -9.48,0 -17.7,-7.121 -19.29,-16.921 l 38.58,0 z m -39.37,-9.485 c 0.64,-13.437 9.02,-22.129 20.87,-22.129 8.7,0 13.91,3.633 20.24,13.75 l 9.48,-5.371 c -7.27,-12.797 -16.92,-18.648 -30.35,-18.648 -18.97,0 -32.09,14.222 -32.09,34.769 0,20.078 13.28,34.153 31.93,34.153 18.65,0 31.14,-13.758 31.14,-34.305 l 0,-2.219 -51.22,0"
         style="fill:#231f20;fill-opacity:1;fill-rule:nonzero;stroke:none"
         id="path44" /></g></g></svg>